<ttFont>
          <CharString index="0">
            rmoveto
            -42 -302 rlineto
            -6 -42 -3 -37 -32 vvcurveto
            -92 40 -82 173 183 61 81 208 29 vhcurveto
            41 298 -4 callgsubr
            70 -14 -43 -298 rlineto
            -178 -26 -41 -46 -96 -71 callsubr
            43 298 -99 callgsubr
            rlineto
            return
          </CharString>
          <CharString index="1">
            rmoveto
            224 118 165 248 67 callsubr
            -174 116 -84 137 hvcurveto
            20 66 rmoveto
            -69 -55 38 146 256 49 100 123 69 56 -38 -146 -256 -50 -100 -123 hvcurveto
            return
          </CharString>
          <CharString index="2">
            -31 callgsubr
            70 421 -125 -11 -60 -342 rlineto
            -25 -25 -50 -43 -32 hhcurveto
            -20 -7 11 18 12 7 43 3 17 hvcurveto
            return
          </CharString>
          <CharString index="3">
            38 266 rmoveto
            -33 -194 rlineto
            -37 -28 -47 -51 -40 hhcurveto
            -18 -9 40 43 105 18 94 27 60 hvcurveto
            2 1 9 1 11 hhcurveto
            32 38 -23 -40 39 hvcurveto
            return
          </CharString>
          <CharString index="4">
            rmoveto
            31 -34 124 65 101 -69 38 36 -77 108 rlineto
            23 -16 -15 21 -18 hhcurveto
            -16 -24 -23 -36 -36 hvcurveto
            return
          </CharString>
          <CharString index="5">
            rmoveto
            55 27 44 42 45 -30 28 -40 -55 -26 -47 -42 -39 27 -31 42 hvcurveto
            return
          </CharString>
          <CharString index="6">
            70 6 rlineto
            17 6 2 18 7 vhcurveto
            31 12 43 21 39 vvcurveto
            44 -45 24 -75 -62 -22 -16 -24 -8 2 -12 11 -15 vhcurveto
            5 19 17 3 24 hhcurveto
            19 12 -5 -14 -11 -10 -6 -20 -8 hvcurveto
            -40 -16 -5 -8 -15 vvcurveto
            return
          </CharString>
          <CharString index="7">
            rmoveto
            -41 17 rlineto
            0 -43 -78 -79 -54 -25 36 45 -7 vhcurveto
            -10 -49 -16 -8 -10 hvcurveto
            -6 -4 -5 -5 -17 vvcurveto
            -51 50 -69 85 157 37 150 0 vhcurveto
            return
          </CharString>
          <CharString index="8">
            -76 callsubr
            -23 callgsubr
            -11 -86 rlineto
            -5 -42 -4 -37 -32 vvcurveto
            -92 40 -82 173 39 34 4 10 29 vhcurveto
            -131 -21 -32 -34 -92 hhcurveto
            -46 -35 7 7 -19 71 callsubr
            -71 hlineto
            -24 -180 rlineto
            -13 37 85 -14 80 hhcurveto
            205 63 93 180 23 hvcurveto
            41 317 54 callsubr
            endchar
          </CharString>
          <CharString index="9">
            rmoveto
            -6 -50 rlineto
            276 hlineto
            6 50 -71 14 29 210 171 312 54 12 6 50 rlineto
            -208 hlineto
            -6 -50 62 -13 rlineto
            -9 vlineto
            -120 -231 rlineto
            -5 hlineto
            -71 217 rlineto
            22 vlineto
            64 14 6 50 rlineto
            -261 hlineto
            -6 -52 54 -10 122 -329 -25 -193 rlineto
            return
          </CharString>
          <CharString index="10">
            -43 -240 -2 callgsubr
            84 74 85 31 26 vhcurveto
            3 -2 rlineto
            return
          </CharString>
          <CharString index="11">
            rmoveto
            52 25 41 40 43 -28 26 -38 -51 -25 -44 -40 -37 26 -29 39 hvcurveto
            204 hmoveto
            52 25 41 40 43 -28 26 -38 -51 -25 -44 -40 -37 26 -29 39 hvcurveto
            return
          </CharString>
          <CharString index="12">
            rmoveto
            -127 -11 -46 -276 -3 -19 -2 -5 rlineto
            hintmask 10110010
            -25 -25 -49 -42 -32 hhcurveto
            -20 -7 11 18 12 7 43 3 17 hvcurveto
            hintmask 10110100
            32 194 -70 callsubr
            hintmask 10111000
            75 -17 -35 -197 -2 callgsubr
            80 71 77 34 29 vhcurveto
            3 -2 -21 -26 -6 -45 -5 -27 rlinecurve
            -99 -18 3 -38 -83 hhcurveto
            -62 -45 30 0 hvcurveto
            hintmask 11111000
            88 -56 vlineto
            71 callgsubr
            hintmask 10111000
            -65 56 -35 105 202 61 122 85 14 vhcurveto
            26 156 rlineto
            endchar
          </CharString>
          <CharString index="13">
            rmoveto
            29 -33 82 38 105 -36 rlineto
            -8 23 19 -6 25 hhcurveto
            20 23 16 27 24 hvcurveto
            50 56 -29 33 -82 -38 -105 35 rlineto
            8 -23 -19 6 -25 hhcurveto
            -20 -25 -15 -28 -22 hvcurveto
            return
          </CharString>
          <CharString index="14">
            39 20 34 26 42 vvcurveto
            48 -44 23 -76 -62 -22 -16 -24 -8 2 -12 12 -15 vhcurveto
            5 18 19 3 17 hhcurveto
            23 12 -6 -16 -19 -15 -9 -14 -8 hvcurveto
            return
          </CharString>
          <CharString index="15">
            rmoveto
            -9 -58 rlineto
            275 -81 callgsubr
            return
          </CharString>
          <CharString index="16">
            -30 callsubr
            269 hlineto
            6 50 -61 16 30 207 rlineto
            24 22 -54 -34 14 hvcurveto
            46 -111 13 -41 rlineto
            -26 8 13 -7 26 hhcurveto
            141 hlineto
            6 50 -65 23 -52 120 -17 40 -19 45 -48 21 rlinecurve
            90 29 93 66 108 vvcurveto
            113 -82 33 -100 vhcurveto
            -268 hlineto
            return
          </CharString>
          <CharString index="17">
            rmoveto
            41 -28 16 -5 4 vhcurveto
            -73 -48 rlineto
            -15 vlineto
            8 -7 6 -7 -15 vvcurveto
            -39 -43 -41 -49 -31 vhcurveto
            23 137 -125 -11 -60 -342 rlineto
            hintmask 01101110
            -25 -25 -50 -43 -32 hhcurveto
            -20 -7 11 18 12 7 43 3 17 hvcurveto
            hintmask 01110110
            40 237 -70 callsubr
            hintmask 10101110
            75 -17 -46 callgsubr
            39 237 rlineto
            152 80 40 61 48 vvcurveto
            endchar
          </CharString>
          <CharString index="18">
            rmoveto
            -62 vlineto
            -16 30 40 -16 43 hhcurveto
            47 19 7 45 31 hvcurveto
            81 116 rlineto
            93 113 157 224 122 vvcurveto
            34 -41 28 -80 -9 -16 -2 -2 -8 vhcurveto
            -26 -51 68 -40 -11 -105 -14 -58 -112 -172 rlinecurve
            -4 49 hlineto
            return
          </CharString>
          <CharString index="19">
            703 rmoveto
            79 -106 rlineto
            -23 17 13 -21 19 hhcurveto
            15 24 23 36 37 hvcurveto
            91 88 -31 34 -123 -67 -101 71 rlineto
            return
          </CharString>
          <CharString index="20">
            -86 callgsubr
            rlineto
            return
          </CharString>
          <CharString index="21">
            rmoveto
            -19 -178 rlineto
            -14 21 71 -30 97 hhcurveto
            132 96 80 128 86 -72 62 -71 62 hvcurveto
            -81 70 -19 24 30 vvcurveto
            31 10 33 60 54 41 -17 -11 17 vhcurveto
            10 -108 rlineto
            68 hlineto
            hintmask 10111000
            18 180 rlineto
            hintmask 11011000
            10 -31 -65 11 -79 hhcurveto
            -144 -74 -80 -101 -81 40 -36 109 -95 hvcurveto
            90 -78 3 -18 -47 vvcurveto
            -34 -27 -34 -52 -84 -37 36 0 vhcurveto
            -11 119 rlineto
            endchar
          </CharString>
          <CharString index="22">
            71 504 -87 callsubr
            return
          </CharString>
          <CharString index="23">
            rmoveto
            24 -29 rlineto
            0 112 43 89 vvcurveto
            29 -17 30 -45 -26 -21 -16 -17 -10 vhcurveto
            0 19 -20 -28 vvcurveto
            -47 -36 65 callgsubr
          </CharString>
          <CharString index="24">
            rmoveto
            16 -23 rlineto
            89 hlineto
            43 334 rlineto
            -238 hlineto
            -5 -56 107 -17 rlineto
            hintmask 10010100
            -25 -182 rlineto
            0 -33 -24 -46 -106 -24 63 123 246 56 108 115 53 36 -15 -16 27 vhcurveto
            6 -101 rlineto
            69 hlineto
            hintmask 10001100
            28 177 rlineto
            hintmask 10010100
            8 -31 -69 12 -92 hhcurveto
            -232 -115 -194 -226 -177 100 -74 143 79 10 17 17 32 hvcurveto
            endchar
          </CharString>
          <CharString index="25">
            75 -16 -57 -368 -10 -65 -9 -23 -8 -14 rlinecurve
            -4 -2 -20 -6 -28 hhcurveto
            -81 hlineto
            -1 -1 -14 -18 -27 vvcurveto
            -38 21 -16 51 123 88 97 116 16 vhcurveto
            51 367 rlineto
            97 vlineto
            return
          </CharString>
          <CharString index="26">
            rmoveto
            -136 vlineto
            120 10 43 47 37 55 31 55 rlinecurve
            2 -31 rlineto
            -136 vlineto
            120 10 rlineto
            152 173 101 209 77 vvcurveto
            36 -38 26 -86 -13 -10 -2 -2 -7 vhcurveto
            -26 -51 69 -40 rlineto
            hintmask 10011110
            -10 -117 -44 -91 -88 -127 rrcurveto
            -4 48 hlineto
            -11 206 rlineto
            20 51 10 47 23 vvcurveto
            44 -50 11 -55 -33 -19 -10 0 vhcurveto
            14 -221 -24 -66 -35 -66 -46 -67 rlinecurve
            -4 47 hlineto
            hintmask 01101110
            -24 378 -188 -16 rlineto
            -62 vlineto
            75 -20 rlineto
            endchar
          </CharString>
          <CharString index="27">
            rmoveto
            -33 -124 rlineto
            -17 -21 -38 -9 -34 hhcurveto
            -96 -35 41 156 239 62 103 104 45 35 -10 -23 34 hvcurveto
            4 -98 rlineto
            69 hlineto
            hintmask 10110000
            28 176 rlineto
            hintmask 11010000
            13 -50 -67 7 -70 hhcurveto
            -224 -119 -187 -229 -144 75 -111 176 69 76 13 24 63 hvcurveto
            16 180 rlineto
            endchar
          </CharString>
          <CharString index="28">
            37 vvcurveto
            28 -17 27 -45 6 vhcurveto
            -149 -152 return
          </CharString>
          <CharString index="29">
            rmoveto
            93 -49 32 40 -149 152 rlineto
            -45 -6 -17 -27 -28 vvcurveto
            -37 return
          </CharString>
          <CharString index="30">
            709 -100 callsubr
            return
          </CharString>
          <CharString index="31">
            -89 -16 53 58 18 5 49 7 46 hvcurveto
            return
          </CharString>
          <CharString index="32">
            47 30 111 -22 rlineto
            -8 41 42 -4 40 hhcurveto
            34 48 18 51 47 -27 42 0 hvcurveto
            -50 hlineto
            -24 -86 -117 63 rlineto
            11 vlineto
            272 339 -46 37 rlineto
            return
          </CharString>
          <CharString index="33">
            rmoveto
            -22 36 rlineto
            0 -52 -34 -50 51 callsubr
            17 84 18 37 vhcurveto
            9 4 32 1 14 hhcurveto
            37 28 -11 0 hvcurveto
            9 -101 rlineto
            46 hlineto
            0 47 45 61 vvcurveto
            67 -77 19 -66 -172 -68 -204 -158 -111 41 -51 101 153 56 82 0 vhcurveto
            endchar
          </CharString>
          <CharString index="34">
            rmoveto
            -57 -296 -53 callsubr
            86 73 callgsubr
            62 vlineto
            return
          </CharString>
          <CharString index="35">
            42 249 rlineto
            3 19 8 50 24 vvcurveto
            46 -22 37 -70 -51 -55 -32 -44 -58 vhcurveto
            -6 callsubr
            return
          </CharString>
          <CharString index="36">
            hhcurveto
            -76 callsubr
            return
          </CharString>
          <CharString index="37">
            rlineto
            83 -75 callgsubr
            return
          </CharString>
          <CharString index="38">
            -6 callgsubr
            13 6 15 18 vvcurveto
            37 -22 19 -16 9 vhcurveto
            -188 -118 rlineto
            return
          </CharString>
          <CharString index="39">
            -62 callsubr
            rlineto
            return
          </CharString>
          <CharString index="40">
            896 rmoveto
            29 -27 82 31 105 -29 rlineto
            -7 23 19 -4 25 hhcurveto
            20 23 12 22 24 hvcurveto
            50 45 -29 26 -82 -30 -105 28 rlineto
            6 -23 -19 5 -25 hhcurveto
            -20 -25 -12 -22 -22 hvcurveto
            -18 -225 -102 callgsubr
            return
          </CharString>
          <CharString index="41">
            -8 0 58 120 65 245 167 0 -20 return
          </CharString>
          <CharString index="42">
            0 callgsubr
            50 callgsubr
            return
          </CharString>
          <CharString index="43">
            rlineto
            -3 -14 -4 -20 -26 vvcurveto
            -27 return
          </CharString>
          <CharString index="44">
            52 callsubr
            hstem
            30 149 297 149 return
          </CharString>
          <CharString index="45">
            -8 -58 -56 callsubr
            return
          </CharString>
          <CharString index="46">
            69 -69 180 121 65 98 20 callsubr
            return
          </CharString>
          <CharString index="47">
            -71 hlineto
            54 320 rlineto
            97 vlineto
            -198 -19 rlineto
            -62 vlineto
            return
          </CharString>
          <CharString index="48">
            566 -102 callsubr
            return
          </CharString>
          <CharString index="49">
            -64 callsubr
            7 -31 66 76 73 callgsubr
            return
          </CharString>
          <CharString index="50">
            -25 376 -189 -16 rlineto
            -62 vlineto
            72 -19 28 -293 rlineto
            -131 vlineto
            -56 -69 rlineto
            return
          </CharString>
          <CharString index="51">
            70 -14 -71 -504 return
          </CharString>
          <CharString index="52">
            26 callsubr
            -46 -38 -17 -28 -32 vhcurveto
            16 -31 -63 29 -59 hhcurveto
            -138 -82 -234 -129 -113 44 -48 73 54 49 48 52 37 hvcurveto
            -72 15 48 -27 86 hhcurveto
            131 70 79 0 hvcurveto
            68 callgsubr
            hintmask 01011100
            6 89 29 76 8 7 rrcurveto
            4 4 17 6 18 hhcurveto
            28 17 -16 -37 hvcurveto
            hintmask 01101100
            -61 -10 -31 -117 -37 vhcurveto
            hintmask 10101100
            -135 -108 rmoveto
            -32 -28 -36 -31 -31 hhcurveto
            -18 -9 40 43 105 18 94 27 60 hvcurveto
            2 1 9 1 11 hhcurveto
            30 40 -17 -37 40 hvcurveto
            -36 -70 -17 -86 -1 -72 rrcurveto
            endchar
          </CharString>
          <CharString index="53">
            rmoveto
            -55 27 -28 71 80 37 53 47 61 -39 23 -57 -76 -43 -54 -47 vhcurveto
            104 -34 rmoveto
            -19 -9 11 22 42 9 11 25 15 13 -7 -27 -43 -10 -9 -24 hvcurveto
            return
          </CharString>
          <CharString index="54">
            -64 callsubr
            16 -31 49 return
          </CharString>
          <CharString index="55">
            -35 -21 -12 -11 -16 vvcurveto
            -8 3 -9 4 -11 vhcurveto
            return
          </CharString>
          <CharString index="56">
            -18 -6 94 -78 -21 520 -20 hstemhm
            89 7 194 201 hintmask 00000000
            hintmask 10110000
            96 -12 rmoveto
            -9 6 2 3 rlineto
            hintmask 01111000
            -4 10 10 -4 17 hhcurveto
            84 74 85 31 26 hvcurveto
            3 -2 rlineto
            hintmask 10111000
            -105 callsubr
            54 320 rlineto
            -14 hlineto
            -124 -19 rlineto
            -78 vlineto
            -43 -240 rlineto
            -1 -3 -1 -3 -4 vvcurveto
            -19 -95 -16 -88 -104 vvcurveto
            -46 17 -23 44 41 25 27 22 9 vhcurveto
            -47 60 -11 37 29 vvcurveto
            endchar
          </CharString>
          <CharString index="57">
            rmoveto
            -27 -61 57 -27 29 68 rlineto
            hintmask 10010110
            -3 15 15 -1 17 hhcurveto
            164 88 164 178 86 -28 51 -51 25 hvcurveto
            hintmask 10001110
            24 55 -55 25 -28 -63 rlineto
            hintmask 10100110
            2 -13 -14 1 -14 hhcurveto
            -144 -106 -145 -202 hvcurveto
            hintmask 01100110
            -75 25 -51 46 -27 vhcurveto
            hintmask 10100110
            187 423 rmoveto
            -124 -280 rlineto
            -1 11 0 12 14 vvcurveto
            130 35 95 11 13 vhcurveto
            6 6 22 4 17 hhcurveto
            13 11 -1 -4 10 hvcurveto
            -92 -363 rmoveto
            128 292 rlineto
            1 -14 1 -17 -20 vvcurveto
            -122 -18 -78 -20 -43 vhcurveto
            -44 callgsubr
            -18 -14 4 8 -11 hvcurveto
            endchar
          </CharString>
          <CharString index="58">
            -40 -111 rlineto
            -94 hlineto
            -79 7 return
          </CharString>
          <CharString index="59">
            -70 hlineto
            82 525 rlineto
            94 vlineto
            -197 70 callgsubr
            -23 -124 rlineto
            12 -27 -36 12 -38 hhcurveto
            -152 -81 -234 -129 hvcurveto
            return
          </CharString>
          <CharString index="60">
            47 callgsubr
            hintmask 01110000
            54 callgsubr
            hintmask 10110000
            -45 callgsubr
            return
          </CharString>
          <CharString index="61">
            vvcurveto
            -49 41 -22 56 66 43 53 0 vhcurveto
            -24 35 rlineto
            -11 -18 -19 -8 -15 hhcurveto
            -23 return
          </CharString>
          <CharString index="62">
            rmoveto
            -41 -90 64 -31 43 95 rlineto
            hintmask 10011100
            -6 23 25 -3 26 hhcurveto
            224 118 165 248 91 -36 93 -91 45 hvcurveto
            37 81 -62 30 -41 -89 rlineto
            hintmask 10101100
            5 -21 -24 2 -25 hhcurveto
            -180 -152 -140 -273 hvcurveto
            hintmask 01101100
            -109 45 -74 68 -40 vhcurveto
            hintmask 10101100
            258 562 rmoveto
            -208 -453 rlineto
            -9 26 -5 35 45 vvcurveto
            256 49 100 123 18 17 -3 -6 15 vhcurveto
            -159 -517 rmoveto
            212 465 rlineto
            14 -28 8 -40 -55 vvcurveto
            -256 -50 -100 -123 -23 -20 4 10 -18 vhcurveto
            endchar
          </CharString>
          <CharString index="63">
            -63 callgsubr
            hintmask 10001100
            -68 callsubr
            572 -3 rmoveto
            28 -69 rlineto
            438 hlineto
            hintmask 01010100
            23 180 rlineto
            -61 hlineto
            hintmask 10010100
            -39 -111 rlineto
            -223 hlineto
            -4 8 381 499 -46 72 rlineto
            -417 hlineto
            hintmask 10100100
            -26 -180 rlineto
            61 hlineto
            hintmask 10010100
            43 111 rlineto
            212 hlineto
            8 -14 rlineto
            -757 -496 rmoveto
            -58 hlineto
            -4 callsubr
            -212 -86 -96 -127 hvcurveto
            endchar
          </CharString>
          <CharString index="64">
            24 callsubr
            219 hlineto
            7 58 -77 11 rlineto
            6 vlineto
            126 198 rlineto
            157 hlineto
            -28 -201 -71 -14 -30 callsubr
            468 hlineto
            hintmask 01101010
            22 180 rlineto
            -61 hlineto
            hintmask 10101110
            -49 callsubr
            27 197 58 callsubr
            34 234 58 7 rlineto
            hintmask 10101010
            108 hlineto
            hintmask 10110010
            -115 66 vlineto
            hintmask 10101010
            28 184 rlineto
            -436 hlineto
            -369 -576 rlineto
            376 266 rmoveto
            -125 hlineto
            153 241 rlineto
            6 hlineto
            endchar
          </CharString>
          <CharString index="65">
            -64 -86 34 -30 rlineto
            32 25 91 77 84 vvcurveto
            43 -23 28 -38 -48 -28 -40 -41 -37 22 -13 22 -10 vhcurveto
            return
          </CharString>
          <CharString index="66">
            -31 callsubr
            hintmask 0011010101000000
            22 180 rlineto
            -61 hlineto
            hintmask 0101010111000000
            -40 -111 rlineto
            -94 hlineto
            -79 7 31 225 58 callsubr
            30 206 58 7 rlineto
            hintmask 0101010101000000
            108 hlineto
            hintmask 0101100101000000
            -115 66 vlineto
            hintmask 0101010101000000
            28 184 rlineto
            -457 hlineto
            hintmask 1101001101000000
            -68 callsubr
            139 -266 -102 callsubr
            endchar
          </CharString>
          <CharString index="67">
            rmoveto
            -52 27 -27 71 80 37 50 45 59 -39 22 -57 -76 -43 -52 -45 vhcurveto
            104 -32 rmoveto
            -19 -9 10 21 40 9 11 25 15 13 -7 -26 -41 -10 -8 -24 hvcurveto
            return
          </CharString>
          <CharString index="68">
            -18 28 35 -9 54 hhcurveto
            53 47 26 56 34 -24 17 -28 15 hvcurveto
            return
          </CharString>
          <CharString index="69">
            -95 callgsubr
            endchar
          </CharString>
          <CharString index="70">
            -8 -58 rlineto
            275 hlineto
            8 58 -70 14 return
          </CharString>
          <CharString index="71">
            -92 callsubr
            hintmask 00111000
            270 -5 callgsubr
            hintmask 00111000
            72 callgsubr
            endchar
          </CharString>
          <CharString index="72">
            rmoveto
            hintmask 01101010
            -109 -613 rlineto
            130 hlineto
            58 386 rlineto
            8 14 50 29 41 hhcurveto
            21 8 -14 -19 -19 -2 67 callgsubr
            hintmask 10011100
            -43 -222 -53 callgsubr
            hintmask 10011010
            75 callsubr
            7 45 27 vvcurveto
            46 -16 40 -74 -47 -59 -32 -44 -58 vhcurveto
            27 175 rlineto
            94 vlineto
            -197 -19 rlineto
            -62 vlineto
            endchar
          </CharString>
          <CharString index="73">
            -29 -172 78 30 88 8 99 378 -20 hstemhm
            -16 109 -57 199 -170 128 hintmask 10111000
            return
          </CharString>
          <CharString index="74">
            88 -11 65 536 58 56 callsubr
            return
          </CharString>
          <CharString index="75">
            vstem
            -4 78 callgsubr
            32 228 rlineto
            8 hlineto
            123 -254 rlineto
            -29 14 10 -17 30 hhcurveto
            146 hlineto
            9 58 -77 16 -149 286 199 217 60 13 9 58 rlineto
            -215 hlineto
            -7 -58 50 -11 rlineto
            -6 vlineto
            -194 -213 rlineto
            -8 hlineto
            31 216 -87 callsubr
            return
          </CharString>
          <CharString index="76">
            -26 callgsubr
            468 hlineto
            return
          </CharString>
          <CharString index="77">
            -9 -58 rlineto
            return
          </CharString>
          <CharString index="78">
            rmoveto
            51 31 41 48 37 -27 26 -36 -55 -27 -45 -43 -40 26 -24 37 hvcurveto
            return
          </CharString>
          <CharString index="79">
            rmoveto
            -10 -82 rlineto
            330 hlineto
            10 82 rlineto
            return
          </CharString>
          <CharString index="80">
            -76 -408 rlineto
            133 hlineto
            return
          </CharString>
          <CharString index="81">
            38 callgsubr
            120 207 return
          </CharString>
          <CharString index="82">
            47 -23 rlineto
            18 -9 5 -5 -9 vvcurveto
            -8 -6 -6 -12 return
          </CharString>
          <CharString index="83">
            705 rmoveto
            39 -42 119 92 rlineto
            23 18 8 14 12 vvcurveto
            26 -26 31 -34 6 vhcurveto
            return
          </CharString>
          <CharString index="84">
            -58 callsubr
            62 return
          </CharString>
          <CharString index="85">
            8 9 25 6 53 hhcurveto
            67 hlineto
            0 24 26 27 vvcurveto
            38 -21 16 -39 -134 -75 -104 -100 -36 vhcurveto
            -77 hlineto
            -16 -32 rlineto
            -39 73 vlineto
            -1 -5 -1 -5 -4 vvcurveto
            return
          </CharString>
          <CharString index="86">
            -194 159 return
          </CharString>
          <CharString index="87">
            -27 callgsubr
            hstem
            29 2 callgsubr
            return
          </CharString>
          <CharString index="88">
            -152 -11 75 274 176 -75 75 hstemhm
            -1 -17 callsubr
            return
          </CharString>
          <CharString index="89">
            600 -78 callsubr
            return
          </CharString>
          <CharString index="90">
            -12 callgsubr
            114 -12 callsubr
            return
          </CharString>
          <CharString index="91">
            hstemhm
            36 198 -187 204 return
          </CharString>
          <CharString index="92">
            -25 -182 rlineto
            0 -33 -24 -46 -106 -24 63 123 246 56 108 115 53 36 -15 -16 27 vhcurveto
            6 -101 rlineto
            69 hlineto
            hintmask 10001010
            28 177 rlineto
            hintmask 10010010
            8 -31 -69 12 -92 hhcurveto
            -232 -115 -194 -226 -177 100 -74 143 79 10 17 17 32 hvcurveto
            endchar
          </CharString>
          <CharString index="93">
            53 callgsubr
            hintmask 10100000
            -39 callsubr
            hintmask 11000000
            -34 18 rlineto
            28 -49 vlineto
            -32 -51 rlineto
            -25 vlineto
            hintmask 10100000
            -25 callsubr
            vhcurveto
            hintmask 11000000
            40 callsubr
          </CharString>
          <CharString index="94">
            0 callgsubr
            87 150 hstemhm
            36 199 -178 128 -27 142 3 201 -142 142 hintmask 0111100010000000
            return
          </CharString>
          <CharString index="95">
            98 -68.5 100.5 return
          </CharString>
          <CharString index="96">
            -43 callgsubr
            62 89 -26 callsubr
            hintmask 01101100
            return
          </CharString>
          <CharString index="97">
            34 callgsubr
            174 hmoveto
            -42 callsubr
            endchar
          </CharString>
          <CharString index="98">
            19 callgsubr
            hintmask 11010000
            -115 66 vlineto
            hintmask 10110000
            28 184 rlineto
            -515 hlineto
            hintmask 11010000
            60 callgsubr
            hintmask 10110000
            32 callsubr
            rlineto
            endchar
          </CharString>
          <CharString index="99">
            -72 39 -54 99 106 71 68 129 69 -43 57 -94 -109 -69 -80 -117 vhcurveto
            return
          </CharString>
          <CharString index="100">
            158 -133 -21 362 158 -2 -20 22 -20 return
          </CharString>
          <CharString index="101">
            68 -75 callgsubr
            return
          </CharString>
          <CharString index="102">
            108 36 103 18 37 vhcurveto
            4 9 32 1 14 37 28 -10 0 hflex1
            9 -101 rlineto
            46 hlineto
            0 47 45 61 vvcurveto
            52 -45 23 -51 8 vhcurveto
            14 110 -78 13 -27 -126 rlineto
            -142 -37 -73 -196 -143 vvcurveto
            return
          </CharString>
          <CharString index="103">
            71 510 rlineto
            23 hlineto
            107 70 -25 -177 return
          </CharString>
          <CharString index="104">
            50 -50 58 215 62 244 69 -58 58 return
          </CharString>
          <CharString index="105">
            -218 0 64 callsubr
            return
          </CharString>
          <CharString index="106">
            vlineto
            27 -1 16 -3 19 -1 -9 -77 rcurveline
            73 hlineto
            30 148 rlineto
            -144 hlineto
            41 175 rlineto
            -139 -175 -155 hlineto
            -12 -148 rlineto
            75 hlineto
            3 22 9 31 5 24 24 1 21 2 16 1 return
          </CharString>
          <CharString index="107">
            rmoveto
            46 -42 116 114 rlineto
            19 18 37 41 7 vvcurveto
            10 -30 43 -13 17 vhcurveto
            -86 112 -62 -32 return
          </CharString>
          <CharString index="108">
            79 -14 68 151 65 320 58 hstem
            98 130 vstem
            return
          </CharString>
          <CharString index="109">
            rmoveto
            -34 30 rlineto
            -32 -25 -91 -77 -84 vvcurveto
            -43 23 -28 38 48 28 40 41 37 -22 13 -22 10 vhcurveto
            return
          </CharString>
          <CharString index="110">
            69 -69 180 288 180 -69 69 return
          </CharString>
          <CharString index="111">
            7 58 rlineto
            -227 hlineto
            -7 -58 return
          </CharString>
          <CharString index="112">
            -27 callgsubr
            hstem
            25 2 callgsubr
            return
          </CharString>
          <CharString index="113">
            hintmask 11011000
            443 648 rmoveto
            -7 -58 rlineto
            hintmask 11101000
            70 -14 -52 -363 rlineto
            -16 -4 vlineto
            -2 16 rlineto
            hintmask 11011000
            -182 435 rlineto
            -193 hlineto
            -8 -58 rlineto
            hintmask 11101000
            70 -14 return
          </CharString>
          <CharString index="114">
            rmoveto
            56 hlineto
            43 116 rlineto
            8 21 15 41 21 vvcurveto
            17 -11 14 -35 -28 -32 -15 0 vhcurveto
            return
          </CharString>
          <CharString index="115">
            -68 callsubr
            endchar
          </CharString>
          <CharString index="116">
            103 -21 callsubr
            24 66 540 65 41 callsubr
            22 151 124 149 return
          </CharString>
          <CharString index="117">
            128 134 123 return
          </CharString>
          <CharString index="118">
            -42 -115 rlineto
            -101 hlineto
            -43 7 return
          </CharString>
          <CharString index="119">
            25 133 163 return
          </CharString>
          <CharString index="120">
            90 0 11 callgsubr
            hintmask 10110000
            return
          </CharString>
          <CharString index="121">
            16 callgsubr
            hintmask 10111000
            return
          </CharString>
          <CharString index="122">
            -24 35 rlineto
            -11 -18 -19 -8 -15 hhcurveto
            -23 -12 8 26 return
          </CharString>
          <CharString index="123">
            -6 94 61 callgsubr
            90 hstemhm
            return
          </CharString>
          <CharString index="124">
            551 77 callsubr
            return
          </CharString>
          <CharString index="125">
            -24 -21 callsubr
            35 -64 callgsubr
            hstemhm
            137 151 67 58 26 66 hintmask 0101010101000000
            return
          </CharString>
          <CharString index="126">
            49 30 40 46 36 -26 25 -35 -53 -26 -43 -42 -39 25 -23 36 hvcurveto
            return
          </CharString>
          <CharString index="127">
            184 -69 69 return
          </CharString>
          <CharString index="128">
            -109 -613 rlineto
            130 hlineto
            59 388 rlineto
            9 17 51 26 36 hhcurveto
            27 7 -13 -24 -46 -34 -42 -98 -74 hvcurveto
            -43 vlineto
            return
          </CharString>
          <CharString index="129">
            99 -94 94 421 -20 return
          </CharString>
          <CharString index="130">
            201 -146 128 return
          </CharString>
          <CharString index="131">
            rmoveto
            -8 -58 rlineto
            return
          </CharString>
          <CharString index="132">
            -8 -21 callsubr
            35 58 120 65 245 167 0 -20 return
          </CharString>
          <CharString index="133">
            rmoveto
            31 callgsubr
            return
          </CharString>
          <CharString index="134">
            rmoveto
            -62 -104 33 -21 rlineto
            33 26 90 80 102 vvcurveto
            36 -24 26 -40 -51 -29 -46 -43 -39 26 -11 24 -6 vhcurveto
            endchar
          </CharString>
          <CharString index="135">
            65 -65 180 410 58 hstemhm
            return
          </CharString>
          <CharString index="136">
            32 7 54 27 57 vvcurveto
            44 -47 29 -71 -100 -39 -62 0 vhcurveto
            34 -32 rlineto
            0 29 27 38 33 18 -6 -27 vhcurveto
            return
          </CharString>
          <CharString index="137">
            0 callgsubr
            181 67 hstemhm
            36 199 -178 128 90 77 -49 201 -153 101 return
          </CharString>
          <CharString index="138">
            41 callgsubr
            85 callsubr
            return
          </CharString>
          <CharString index="139">
            37 115 rlineto
            105 hlineto
            -72 -507 return
          </CharString>
          <CharString index="140">
            -5 -21 callsubr
            24 22 callsubr
            hstemhm
            36 199 -178 128 -38 151 5 201 return
          </CharString>
          <CharString index="141">
            75 -17 -97 callsubr
            return
          </CharString>
          <CharString index="142">
            11 62 rlineto
            -55 hlineto
            29 198 -71 19 rlineto
            -57 -217 rmoveto
            -82 hlineto
            -1 5 101 114 rlineto
            endchar
          </CharString>
          <CharString index="143">
            -33 callsubr
            434 106 vstem
            return
          </CharString>
          <CharString index="144">
            137 86 137 return
          </CharString>
          <CharString index="145">
            -67 -33 22 76 return
          </CharString>
          <CharString index="146">
            -30 -21 callsubr
            24 80 callgsubr
            -22 151 -9 207 return
          </CharString>
          <CharString index="147">
            -39 -18 9 7 -19 hvcurveto
            endchar
          </CharString>
          <CharString index="148">
            hstemhm
            30 149 return
          </CharString>
          <CharString index="149">
            223 0 69 -69 180 93 65 126 70 callsubr
            608 58 30 66 hintmask 10101010
            return
          </CharString>
          <CharString index="150">
            -31 callgsubr
            39 237 rlineto
            return
          </CharString>
          <CharString index="151">
            hstemhm
            25 129 130 200 return
          </CharString>
          <CharString index="152">
            58 406 70 callsubr
            return
          </CharString>
          <CharString index="153">
            rlineto
            -2 -14 -3 -21 -10 vvcurveto
            return
          </CharString>
          <CharString index="154">
            rmoveto
            18 -46 rlineto
            264 hlineto
            14 115 rlineto
            -52 hlineto
            -18 -47 rlineto
            -98 4 hlineto
            80 54 rlineto
            return
          </CharString>
          <CharString index="155">
            -9 64 180 64 -49 64 180 64 hstemhm
            12 96 123 96 72 96 123 96 return
          </CharString>
          <CharString index="156">
            -49 callsubr
            31 225 rlineto
            return
          </CharString>
          <CharString index="157">
            -22 37 rlineto
            0 -54 -35 -50 38 callsubr
            vhcurveto
            return
          </CharString>
          <CharString index="158">
            -60 -36 17 104 108 return
          </CharString>
          <CharString index="159">
            103 -11 66 540 65 return
          </CharString>
          <CharString index="160">
            202 -187 198 return
          </CharString>
          <CharString index="161">
            71 14 7 58 rlineto
            return
          </CharString>
          <CharString index="162">
            -73 -11 72 -47 -21 448 72 -20 20 -3 -20 hstemhm
            -36 callgsubr
            return
          </CharString>
          <CharString index="163">
            hstem
            67 130 return
          </CharString>
          <CharString index="164">
            -11 99 -94 94 345 74 callsubr
            return
          </CharString>
          <CharString index="165">
            rlineto
            62 callsubr
            return
          </CharString>
          <CharString index="166">
            72 49 54 62 34 hvcurveto
            return
          </CharString>
          <CharString index="167">
            21 -21 394 119 return
          </CharString>
          <CharString index="168">
            hhcurveto
            26 17 -19 -65 -107 -11 -99 -31 -47 hvcurveto
            -4 -2 -12 0 -12 hhcurveto
            return
          </CharString>
          <CharString index="169">
            121 -67 58 hlineto
            26 196 rlineto
            -60 hlineto
            -22 -64 rlineto
            -114 hlineto
            return
          </CharString>
          <CharString index="170">
            rmoveto
            -11 -79 rlineto
            400 hlineto
            11 79 rlineto
            return
          </CharString>
          <CharString index="171">
            58 532 58 return
          </CharString>
          <CharString index="172">
            -191 -156 855 hstem
            135 90 vstem
            135 699 rmoveto
            return
          </CharString>
          <CharString index="173">
            52 callgsubr
            endchar
          </CharString>
          <CharString index="174">
            127 -69 131 -194 -180 -152 -140 -273 return
          </CharString>
          <CharString index="175">
            697 rmoveto
            -496 -710 65 -43 return
          </CharString>
          <CharString index="176" raw="1">
            db8f77c9 e4120b  
          </CharString>
          <CharString index="177">
            20 callsubr
            hstemhm
            return
          </CharString>
          <CharString index="178">
            hvcurveto
            72 callgsubr
            return
          </CharString>
          <CharString index="179">
            203 -14 68 -54 58 -58 193 397 58 hstemhm
            -13 return
          </CharString>
          <CharString index="180">
            rmoveto
            -32 -40 rlineto
            0 26 -41 85 73 89 36 86 vhcurveto
            return
          </CharString>
          <CharString index="181">
            80 44 callsubr
            -185 197 return
          </CharString>
          <CharString index="182">
            -71 hlineto
            42 249 rlineto
            3 19 return
          </CharString>
          <CharString index="183">
            77 -1 101 hintmask 00000000
            return
          </CharString>
          <CharString index="184">
            rmoveto
            93 49 rlineto
            return
          </CharString>
          <CharString index="185">
            hhcurveto
            159 69 245 118 106 -48 44 -70 return
          </CharString>
          <CharString index="186">
            -2 callsubr
            hstem
            -13 364 vstem
            return
          </CharString>
          <CharString index="187">
            24 44 vvcurveto
            39 30 31 49 60 22 -36 -44 -50 return
          </CharString>
          <CharString index="188">
            rmoveto
            40 callgsubr
            return
          </CharString>
          <CharString index="189">
            -54 55 -120 -111 -114 -63 -120 return
          </CharString>
          <CharString index="190">
            hhcurveto
            21 12 -12 -19 -19 -4 -23 -3 -16 hvcurveto
            return
          </CharString>
          <CharString index="191">
            97 hstem
            -251 330 vstem
            return
          </CharString>
          <CharString index="192">
            hstem
            11 545 vstem
            return
          </CharString>
          <CharString index="193">
            -26 -43 callgsubr
            return
          </CharString>
          <CharString index="194">
            69 -58 58 hstemhm
            return
          </CharString>
        <CharString name=".notdef">
          -407 endchar
        </CharString>
        <CharString name="A">
          -66 callsubr
          hstemhm
          -57 606 hintmask 11011000
          -49 58 -104 callgsubr
          hintmask 11101000
          -61 callgsubr
        </CharString>
        <CharString name="AE">
          42 callsubr
          -72 58 -43 callsubr
        </CharString>
        <CharString name="AEacute">
          42 callsubr
          420 674 -83 callgsubr
          -468 -664 -43 callsubr
        </CharString>
        <CharString name="Aacute">
          -66 callsubr
          hstemhm
          -57 606 hintmask 11011000
          236 674 -83 callgsubr
          -261 -664 -104 callgsubr
          hintmask 11101000
          -61 callgsubr
        </CharString>
        <CharString name="Abreve">
          -66 callsubr
          44 97 hstemhm
          -57 606 hintmask 00000000
          hintmask 11011100
          513 814 -95 callgsubr
          -562 -756 -103 callgsubr
          rlineto
          hintmask 11010100
          -94 callgsubr
          hintmask 11100100
          -61 callgsubr
        </CharString>
        <CharString name="Acircumflex">
          -66 callsubr
          hstemhm
          -57 606 hintmask 11011000
          174 715 -102 callgsubr
          -313 -731 -104 callgsubr
          hintmask 11101000
          -61 callgsubr
        </CharString>
        <CharString name="Adieresis">
          -66 callsubr
          52 145 hstemhm
          148 37 callsubr
          hintmask 11011110
          210 687 -92 callgsubr
          -482 -629 -104 callgsubr
          hintmask 11101110
          -61 callgsubr
        </CharString>
        <CharString name="Agrave">
          -66 callsubr
          hstemhm
          -57 606 hintmask 11011000
          248 729 -85 callgsubr
          -297 -671 -104 callgsubr
          hintmask 11101000
          -61 callgsubr
        </CharString>
        <CharString name="Amacron">
          -66 callsubr
          81 82 hstemhm
          -57 606 hintmask 11011100
          159 -10 callgsubr
          -558 -740 -104 callgsubr
          hintmask 11101100
          -61 callgsubr
        </CharString>
        <CharString name="Aogonek">
          -8 -187 69 118 58 120 65 245 167 0 -20 hstemhm
          294 95 hintmask 11101100
          -49 58 24 callsubr
          219 hlineto
          7 58 -77 11 rlineto
          6 vlineto
          46 103 rlineto
          187 hlineto
          17 -101 rlineto
          -9 vlineto
          -64 -10 -5 -58 rlineto
          103 hlineto
          -41 -24 -41 -38 -54 -46 callsubr
          -12 8 26 38 30 29 23 17 hvcurveto
          103 hlineto
          4 58 -66 14 -94 callgsubr
          hintmask 11110100
          -61 callgsubr
        </CharString>
        <CharString name="Aring">
          -66 callsubr
          28 47 82 47 hstemhm
          218 76 62 77 hintmask 00000000
          hintmask 11011111
          218 742 -40 callsubr
          -371 -652 -103 callgsubr
          rlineto
          hintmask 11010111
          -94 callgsubr
          hintmask 11100111
          -61 callgsubr
        </CharString>
        <CharString name="Aringacute">
          -66 callsubr
          28 47 82 47 hstemhm
          235 76 62 77 hintmask 11010111
          321 865 -83 callgsubr
          hintmask 11011111
          -62 -171 -40 callsubr
          -388 -652 -103 callgsubr
          rlineto
          hintmask 11010111
          -94 callgsubr
          hintmask 11100111
          -61 callgsubr
        </CharString>
        <CharString name="Atilde">
          -66 callsubr
          hstemhm
          -57 606 hintmask 11011000
          129 727 -94 callsubr
          -228 -724 -104 callgsubr
          hintmask 11101000
          -61 callgsubr
        </CharString>
        <CharString name="B">
          3 0 62 517 87 callsubr
          360 145 -115 140 hintmask 11010000
          -4 58 -26 callgsubr
          260 hlineto
          131 127 65 141 88 -78 36 -66 10 hvcurveto
          hintmask 11001000
          80 21 89 60 93 vvcurveto
          101 -77 33 -125 vhcurveto
          -252 hlineto
          hintmask 10101000
          -68 callsubr
          173 288 rmoveto
          hintmask 11001000
          33 216 rlineto
          0 11 3 17 59 30 -24 -51 vhcurveto
          hintmask 10101000
          -75 -35 -49 -115 -20 vhcurveto
          -39 -293 rmoveto
          32 236 rlineto
          hintmask 11010000
          84 -4 43 -33 -76 vvcurveto
          -65 -28 -63 -91 vhcurveto
          hintmask 10101000
          -12 -17 2 3 -11 hvcurveto
          endchar
        </CharString>
        <CharString name="C">
          1 callgsubr
          436 206 -80 callsubr
        </CharString>
        <CharString name="Cacute">
          1 callgsubr
          278 -69 callsubr
          182 -516 -80 callsubr
        </CharString>
        <CharString name="Cacute.loclPLK">
          1 callgsubr
          367 -24 callsubr
          -60 -656 -80 callsubr
        </CharString>
        <CharString name="Ccaron">
          1 callgsubr
          254 -87 callgsubr
          69 -572 -80 callsubr
        </CharString>
        <CharString name="Ccedilla">
          3 -194 58 126 66 539 46 callgsubr
          57 81 -11 97 hintmask 11101010
          212 53 callgsubr
          -39 callsubr
          hintmask 11101100
          -34 18 rlineto
          18 vlineto
          58 4 61 12 53 20 16 180 rcurveline
          -69 hlineto
          -33 -124 rlineto
          -17 -21 -38 -9 -34 hhcurveto
          -96 -35 41 156 239 62 103 104 45 35 -10 -23 34 hvcurveto
          4 -98 rlineto
          69 hlineto
          hintmask 11011010
          28 176 rlineto
          hintmask 11101100
          13 -50 -67 7 -70 hhcurveto
          -224 -119 -187 -229 -139 69 -107 162 -8 hvcurveto
          -25 -41 rlineto
          -25 vlineto
          hintmask 11101010
          -25 callsubr
          -39 -18 9 7 -19 vhcurveto
          endchar
        </CharString>
        <CharString name="Ccircumflex">
          1 callgsubr
          255 715 -102 callgsubr
          91 -583 -80 callsubr
        </CharString>
        <CharString name="Cdotaccent">
          3 -11 67 539 65 -20 20 21 151 41 callsubr
          156 143 hintmask 00000000
          hintmask 11011100
          400 -39 callgsubr
          36 -475 rmoveto
          -33 -124 rlineto
          -17 -21 -38 -9 -34 hhcurveto
          -96 -35 41 156 hvcurveto
          hintmask 11001000
          239 62 103 104 45 35 -10 -23 34 vhcurveto
          4 -98 rlineto
          69 hlineto
          hintmask 10101000
          28 176 rlineto
          hintmask 11001000
          13 -50 -67 7 -70 hhcurveto
          -224 -119 -187 -229 -144 75 -111 176 69 76 13 24 63 hvcurveto
          16 180 rlineto
          endchar
        </CharString>
        <CharString name="D">
          95 0 69 510 45 callgsubr
          hintmask 11010000
          30 callgsubr
          hintmask 10110000
          -68 callsubr
          193 -3 rmoveto
          -58 hlineto
          hintmask 11010000
          -4 callsubr
          hvcurveto
          hintmask 10110000
          -212 -86 -96 -127 vhcurveto
          endchar
        </CharString>
        <CharString name="Dcaron">
          95 0 69 510 45 callgsubr
          hintmask 11010000
          239 -87 callgsubr
          -356 -720 -63 callgsubr
          hintmask 10110000
          -68 callsubr
          193 -3 rmoveto
          -58 hlineto
          hintmask 11010000
          -4 callsubr
          hvcurveto
          hintmask 10110000
          -212 -86 -96 -127 vhcurveto
          endchar
        </CharString>
        <CharString name="Dcroat">
          95 0 69 230 67 213 45 callgsubr
          hintmask 11101000
          -4 -34 callgsubr
        </CharString>
        <CharString name="E">
          -70 callgsubr
          6 callgsubr
          hintmask 10101001
          -4 58 -101 callgsubr
        </CharString>
        <CharString name="Eacute">
          -70 callgsubr
          6 callgsubr
          hintmask 10101001
          249 -69 callsubr
          -229 -664 -101 callgsubr
        </CharString>
        <CharString name="Ebreve">
          -70 callgsubr
          31 97 6 callgsubr
          hintmask 1010101010000000
          501 814 -95 callgsubr
          -505 -756 -77 callgsubr
        </CharString>
        <CharString name="Ecaron">
          -70 callgsubr
          6 callgsubr
          hintmask 10101001
          223 -87 callgsubr
          -340 -720 -101 callgsubr
        </CharString>
        <CharString name="Ecircumflex">
          -70 callgsubr
          6 callgsubr
          hintmask 10101001
          183 715 -102 callgsubr
          -277 -731 -101 callgsubr
        </CharString>
        <CharString name="Edieresis">
          -70 callgsubr
          39 145 hstemhm
          155 137 63 58 -35 137 -76 66 hintmask 1010101100100000
          217 687 rmoveto
          50 25 40 39 40 -27 26 -36 -50 -24 -43 -38 -35 25 -29 37 hvcurveto
          hintmask 1010101101000000
          223 hmoveto
          50 25 40 39 40 -27 26 -36 -50 -24 -43 -38 -35 25 -29 37 hvcurveto
          -444 -629 -31 callsubr
          hintmask 0110101101000000
          22 180 rlineto
          -61 hlineto
          hintmask 1010101101000000
          49 callsubr
          hintmask 1010101110100000
          62 callsubr
          30 206 58 7 rlineto
          hintmask 1010101100100000
          108 hlineto
          hintmask 1011001100100000
          -115 66 vlineto
          hintmask 1010101100100000
          28 184 rlineto
          -457 hlineto
          hintmask 1010011100100000
          8 callsubr
        </CharString>
        <CharString name="Edotaccent">
          -70 callgsubr
          33 151 hstemhm
          262 143 -50 58 26 66 hintmask 1010101101000000
          327 -39 callgsubr
          -331 -623 -31 callsubr
          hintmask 0110101101000000
          22 180 rlineto
          -61 hlineto
          hintmask 1010101011000000
          -40 -111 rlineto
          -94 hlineto
          -79 7 31 225 58 callsubr
          30 206 58 7 rlineto
          hintmask 1010101101000000
          108 hlineto
          hintmask 1011001101000000
          -115 66 vlineto
          hintmask 1010101101000000
          28 184 rlineto
          -457 hlineto
          hintmask 1010011101000000
          8 callsubr
        </CharString>
        <CharString name="Egrave">
          -70 callgsubr
          6 callgsubr
          hintmask 10101001
          254 729 -85 callgsubr
          -258 -671 -101 callgsubr
        </CharString>
        <CharString name="Emacron">
          -70 callgsubr
          68 82 6 callgsubr
          hintmask 1010101010000000
          162 -10 callgsubr
          -516 -740 -77 callgsubr
        </CharString>
        <CharString name="Eng">
          90 -172 100 72 11 callgsubr
          6 callsubr
          -71 -504 -71 -14 -30 callsubr
          231 hlineto
          7 58 -71 14 56 391 rlineto
          4 hlineto
          1 -15 178 -426 -9 -52 -8 -19 -7 -13 rlinecurve
          -4 -2 -20 -6 -28 hhcurveto
          -81 hlineto
          -1 -1 -14 -18 -27 vvcurveto
          -38 21 -16 51 123 89 98 117 15 vhcurveto
          hintmask 11011000
          73 533 54 callsubr
          endchar
        </CharString>
        <CharString name="Eogonek">
          -24 -187 69 118 69 232 69 callgsubr
          278 95 -18 58 26 66 hintmask 1110101010000000
          -4 58 -26 callgsubr
          373 hlineto
          -41 -24 -41 -38 -54 -46 callsubr
          -12 8 26 38 30 29 23 17 hvcurveto
          29 hlineto
          22 180 rlineto
          -61 hlineto
          49 callsubr
          hintmask 1110100110000000
          62 callsubr
          30 206 58 7 rlineto
          hintmask 1110101010000000
          108 hlineto
          hintmask 1111001010000000
          -115 66 vlineto
          hintmask 1110101010000000
          28 184 rlineto
          -457 hlineto
          hintmask 1110011010000000
          8 callsubr
        </CharString>
        <CharString name="Eth">
          87 0 69 230 67 213 87 callsubr
          470 149 hintmask 11101000
          -7 -34 callgsubr
        </CharString>
        <CharString name="Euro">
          18 -11 67 158 77 47 77 180 65 -20 20 hstemhm
          -7 567 hintmask 11110100
          399 660 rmoveto
          -170 -97 -112 -133 -39 hvcurveto
          -52 hlineto
          -32 -77 rlineto
          354 hlineto
          33 77 rlineto
          -171 hlineto
          91 16 39 89 87 hhcurveto
          31 34 -11 -22 27 hvcurveto
          4 -98 rlineto
          69 hlineto
          hintmask 11101100
          28 176 rlineto
          hintmask 11110100
          14 -48 -73 6 -40 hhcurveto
          -6 -578 rmoveto
          -18 -20 -38 -8 -26 hhcurveto
          -83 -19 79 79 -5 hvcurveto
          107 hlineto
          34 77 rlineto
          -316 hlineto
          -34 -77 rlineto
          70 hlineto
          -133 15 71 -92 140 hhcurveto
          52 78 13 24 60 hvcurveto
          16 180 rlineto
          -69 hlineto
          endchar
        </CharString>
        <CharString name="Euro.osf">
          -22 -11 73 92 77 47 77 99 79 -19 -20 hstemhm
          75 143 hintmask 11101100
          69 355 rmoveto
          -32 -77 rlineto
          316 hlineto
          33 77 rlineto
          -150 hlineto
          hintmask 11110100
          76 14 48 23 66 hhcurveto
          35 24 -5 -5 16 hvcurveto
          5 -85 rlineto
          62 hlineto
          hintmask 11101100
          18 155 rlineto
          hintmask 11110100
          8 -29 -40 11 -88 hhcurveto
          -118 -102 -58 -120 -44 hvcurveto
          -86 -124 rmoveto
          -34 -77 rlineto
          92 hlineto
          -129 92 -36 131 82 65 21 14 32 vhcurveto
          14 152 rlineto
          -61 hlineto
          -28 -97 rlineto
          -8 -16 -25 -9 -37 hhcurveto
          -49 -57 10 82 hvcurveto
          81 hlineto
          34 77 rlineto
          endchar
        </CharString>
        <CharString name="F">
          -51 0 58 220 69 117 184 -69 87 callsubr
          358 56 28 66 hintmask 11010010
          -4 58 -26 callgsubr
          305 hlineto
          6 54 -97 13 30 211 rlineto
          hintmask 11010110
          127 -67 56 hlineto
          29 200 rlineto
          -58 hlineto
          -19 -64 rlineto
          -126 hlineto
          32 225 58 7 rlineto
          hintmask 11010010
          112 hlineto
          hintmask 11100010
          -115 66 vlineto
          hintmask 11010010
          29 184 rlineto
          -461 hlineto
          hintmask 11001010
          8 callsubr
        </CharString>
        <CharString name="G">
          -25 callgsubr
          hstemhm
          30 149 hintmask 00000000
          hintmask 01110100
          401 23 -83 callsubr
        </CharString>
        <CharString name="G_tilde.loclGUA">
          -25 callgsubr
          hstemhm
          30 149 hintmask 10010100
          198 727 -94 callsubr
          hintmask 01110100
          153 -759 -83 callsubr
        </CharString>
        <CharString name="Gbreve">
          -25 callgsubr
          19 97 41 callsubr
          hintmask 00000000
          hintmask 01110110
          551 814 -95 callgsubr
          -150 -791 rmoveto
          16 -23 rlineto
          89 hlineto
          43 334 rlineto
          -238 hlineto
          -5 -56 107 -17 rlineto
          hintmask 10010010
          -15 callsubr
        </CharString>
        <CharString name="Gcaron">
          -25 callgsubr
          hstemhm
          30 149 hintmask 10010100
          286 -87 callgsubr
          hintmask 01110100
          2 -755 -83 callsubr
        </CharString>
        <CharString name="Gcircumflex">
          -25 callgsubr
          hstemhm
          30 149 hintmask 10010100
          247 715 -102 callgsubr
          hintmask 01110100
          64 -766 -83 callsubr
        </CharString>
        <CharString name="Gcommaaccent">
          -25 callgsubr
          hstemhm
          30 149 71 100 hintmask 00000000
          hintmask 01110110
          401 23 rmoveto
          16 -23 rlineto
          89 hlineto
          43 334 rlineto
          -238 hlineto
          -5 -56 107 -17 rlineto
          hintmask 10010110
          -25 -182 rlineto
          0 -33 -24 -46 -106 -24 63 123 246 56 108 115 53 36 -15 -16 27 vhcurveto
          6 -101 rlineto
          69 hlineto
          hintmask 10001110
          28 177 rlineto
          hintmask 10010110
          8 -31 -69 12 -92 hhcurveto
          -232 -115 -194 -226 -177 100 -74 143 79 10 17 17 32 hvcurveto
          -180 -209 -84 callsubr
        </CharString>
        <CharString name="Gdotaccent">
          -25 callgsubr
          21 151 41 callsubr
          148 143 hintmask 00000000
          hintmask 01110111
          392 -39 callgsubr
          9 -658 rmoveto
          16 -23 rlineto
          89 hlineto
          43 334 rlineto
          -238 hlineto
          -5 -56 107 -17 rlineto
          hintmask 10010011
          -15 callsubr
        </CharString>
        <CharString name="H">
          121 0 75 callgsubr
          -13 703 vstem
          -5 58 -54 callgsubr
          endchar
        </CharString>
        <CharString name="Hbar">
          121 0 58 207 67 95 67 96 58 hstem
          -13 703 vstem
          682 590 rmoveto
          8 58 rlineto
          -275 hlineto
          -8 -58 70 -14 -12 -82 rlineto
          -206 hlineto
          -23 callgsubr
          -12 -82 rlineto
          -68 hlineto
          -10 -67 rlineto
          69 hlineto
          -50 -355 -71 -14 -37 callsubr
          27 193 rlineto
          206 hlineto
          -28 -193 -71 -14 -37 callsubr
          51 355 rlineto
          69 hlineto
          10 67 rlineto
          -70 hlineto
          12 82 rlineto
          -169 -244 rmoveto
          -205 hlineto
          13 95 rlineto
          206 hlineto
          endchar
        </CharString>
        <CharString name="Hcircumflex">
          121 0 75 callgsubr
          -13 703 vstem
          247 715 -102 callgsubr
          -342 -731 -54 callgsubr
          endchar
        </CharString>
        <CharString name="I">
          79 callsubr
          -4 58 -92 callsubr
          endchar
        </CharString>
        <CharString name="IJ">
          72 callsubr
          808 hintmask 01011000
          -4 58 -36 callsubr
        </CharString>
        <CharString name="Iacute">
          79 callsubr
          149 -69 callsubr
          -129 -664 -92 callsubr
          endchar
        </CharString>
        <CharString name="Iacute_J.loclNLD">
          72 callsubr
          851 hintmask 01011000
          190 674 -83 callgsubr
          470 -48 -83 callgsubr
          -616 -664 -36 callsubr
        </CharString>
        <CharString name="Ibreve">
          -2 callsubr
          31 97 hstem
          -13 408 vstem
          395 814 -95 callgsubr
          -399 -756 -92 callsubr
          endchar
        </CharString>
        <CharString name="Icircumflex">
          -2 callsubr
          hstem
          -13 396 vstem
          81 715 -102 callgsubr
          -175 -731 -92 callsubr
          endchar
        </CharString>
        <CharString name="Idieresis">
          -2 callsubr
          39 145 hstem
          48 37 callsubr
          vstem
          110 687 -92 callgsubr
          -337 -629 -92 callsubr
          endchar
        </CharString>
        <CharString name="Idotaccent">
          -2 callsubr
          33 151 hstem
          164 143 vstem
          229 -39 callgsubr
          -233 -623 -92 callsubr
          endchar
        </CharString>
        <CharString name="Igrave">
          79 callsubr
          153 729 -85 callgsubr
          -157 -671 -92 callsubr
          endchar
        </CharString>
        <CharString name="Imacron">
          -2 callsubr
          68 82 hstem
          -13 405 vstem
          62 798 -28 callsubr
          -396 -740 -92 callsubr
          endchar
        </CharString>
        <CharString name="Iogonek">
          -218 -187 69 118 64 callsubr
          hstem
          32 95 vstem
          -4 58 -26 callgsubr
          127 hlineto
          -41 -24 -41 -38 -54 -46 callsubr
          -12 8 26 38 30 29 23 17 hvcurveto
          82 -81 callgsubr
          endchar
        </CharString>
        <CharString name="Itilde">
          -2 callsubr
          hstem
          -13 442 vstem
          29 727 -94 callsubr
          -83 -724 -92 callsubr
          endchar
        </CharString>
        <CharString name="J">
          -131 -14 68 536 58 hstem
          -21 482 vstem
          3 193 rmoveto
          -71 callgsubr
          -14 125 rlineto
          endchar
        </CharString>
        <CharString name="Jcircumflex">
          -131 -14 68 536 58 hstem
          -21 513 vstem
          190 715 -102 callgsubr
          -277 -596 rmoveto
          -71 callgsubr
          -14 125 rlineto
          endchar
        </CharString>
        <CharString name="K">
          87 callgsubr
          -13 628 -32 callsubr
          endchar
        </CharString>
        <CharString name="Kcommaaccent">
          87 callgsubr
          246 100 -32 callsubr
          143 -258 -84 callsubr
        </CharString>
        <CharString name="L">
          64 callgsubr
          -13 462 hintmask 10110000
          -4 58 -47 callsubr
          endchar
        </CharString>
        <CharString name="Lacute">
          64 callgsubr
          -13 462 hintmask 10110000
          150 -69 callsubr
          -130 -664 -47 callsubr
          endchar
        </CharString>
        <CharString name="Lcaron">
          64 callgsubr
          427 95 hintmask 10110000
          397 -55 callgsubr
          -401 -514 -47 callsubr
          endchar
        </CharString>
        <CharString name="Lcommaaccent">
          64 callgsubr
          170 100 hintmask 10110000
          -4 58 -47 callsubr
          67 -258 -84 callsubr
        </CharString>
        <CharString name="Ldot">
          -98 0 65 -65 180 130 152 128 58 hstemhm
          309 145 hintmask 10111000
          -4 58 47 callgsubr
          hintmask 01111000
          54 callgsubr
          hintmask 10111000
          -45 callgsubr
          305 238 -29 callsubr
          endchar
        </CharString>
        <CharString name="Lslash">
          -99 0 28 callsubr
          -13 462 hintmask 10110000
          -4 58 47 callgsubr
          hintmask 01110000
          54 callgsubr
          hintmask 10110000
          11 callsubr
          33 235 114 45 rlineto
          72 vlineto
          -104 -42 28 194 -91 callgsubr
          -35 -251 -85 -34 rlineto
          -69 vlineto
          74 29 -25 -179 rlineto
          endchar
        </CharString>
        <CharString name="M">
          224 0 58 406 184 -58 58 hstemhm
          -11 800 hintmask 10110000
          -2 58 -26 callgsubr
          231 hlineto
          7 58 -71 14 51 361 rlineto
          27 4 vlineto
          73 -460 rlineto
          73 hlineto
          hintmask 11010000
          205 464 rlineto
          5 hlineto
          -8 -32 -53 -360 -71 -14 40 callgsubr
          rlineto
          hintmask 10110000
          71 504 54 callsubr
          -229 hlineto
          -187 -418 -4 -22 rlineto
          -4 22 hlineto
          -63 418 rlineto
          -224 hlineto
          8 callsubr
        </CharString>
        <CharString name="N">
          13 callsubr
          -7 58 -88 callgsubr
          endchar
        </CharString>
        <CharString name="Nacute">
          13 callsubr
          305 -69 callsubr
          -288 -664 -88 callgsubr
          endchar
        </CharString>
        <CharString name="Nacute.loclPLK">
          13 callsubr
          353 -24 callsubr
          -489 -804 -88 callgsubr
          endchar
        </CharString>
        <CharString name="Ncaron">
          13 callsubr
          275 -87 callgsubr
          -395 -720 -88 callgsubr
          endchar
        </CharString>
        <CharString name="Ncommaaccent">
          90 0 58 518 72 -58 58 hstemhm
          241 100 hintmask 10110000
          -7 58 -88 callgsubr
          141 -258 -84 callsubr
        </CharString>
        <CharString name="Ntilde">
          13 callsubr
          197 727 -94 callsubr
          -254 -724 -88 callgsubr
          endchar
        </CharString>
        <CharString name="O">
          -63 callsubr
          vstem
          283 -11 -106 callsubr
          endchar
        </CharString>
        <CharString name="OE">
          251 0 66 -66 -61 callsubr
          -65 65 hstemhm
          20 149 470 59 26 66 hintmask 0101010100000000
          260 hmoveto
          480 hlineto
          hintmask 0011010100000000
          22 180 rlineto
          -61 hlineto
          hintmask 0101010110000000
          49 callsubr
          120 -67 59 hlineto
          26 196 rlineto
          -60 hlineto
          -22 -64 rlineto
          -114 hlineto
          30 206 58 7 rlineto
          hintmask 0101010101000000
          108 hlineto
          hintmask 0101100101000000
          -115 66 vlineto
          hintmask 0101010100000000
          28 184 rlineto
          -461 hlineto
          -196 -141 -163 -238 -174 103 -73 137 hvcurveto
          hintmask 1001001100000000
          92 72 rmoveto
          -6 -1 rlineto
          -3 -16 -21 -2 -16 hhcurveto
          -114 -10 116 57 256 70 88 105 32 26 -3 -4 21 hvcurveto
          endchar
        </CharString>
        <CharString name="Oacute">
          -63 callsubr
          vstem
          292 -69 callsubr
          15 -733 -106 callsubr
          endchar
        </CharString>
        <CharString name="Oacute.loclPLK">
          -63 callsubr
          vstem
          338 -24 callsubr
          -184 -873 -106 callsubr
          endchar
        </CharString>
        <CharString name="Obreve">
          52 callsubr
          19 97 41 callsubr
          297 149 hintmask 00000000
          hintmask 11111000
          543 814 -95 callgsubr
          -260 -825 rmoveto
          224 118 165 248 hvcurveto
          hintmask 11011000
          67 callsubr
          vhcurveto
          hintmask 11111000
          -174 116 -84 137 vhcurveto
          20 66 rmoveto
          -69 -55 38 146 hvcurveto
          hintmask 11011000
          256 49 100 123 69 56 -38 -146 vhcurveto
          hintmask 11111000
          -256 -50 -100 -123 vhcurveto
          endchar
        </CharString>
        <CharString name="Ocircumflex">
          -63 callsubr
          vstem
          222 715 -102 callgsubr
          -29 -800 -106 callsubr
          endchar
        </CharString>
        <CharString name="Odieresis">
          52 callsubr
          27 145 41 callsubr
          14 37 callsubr
          -77 149 hintmask 00000000
          hintmask 11111100
          255 687 -92 callgsubr
          hintmask 11010010
          -195 -698 -106 callsubr
          endchar
        </CharString>
        <CharString name="Ograve">
          -63 callsubr
          vstem
          296 729 -85 callgsubr
          -13 -740 -106 callsubr
          endchar
        </CharString>
        <CharString name="Ohorn">
          -63 callsubr
          63 106 vstem
          794 668 -89 callgsubr
          endchar
        </CharString>
        <CharString name="Ohungarumlaut">
          -63 callsubr
          vstem
          196 696 -22 callgsubr
          76 -150 -22 callgsubr
          -215 -857 -106 callsubr
          endchar
        </CharString>
        <CharString name="Omacron">
          52 callsubr
          56 82 hstem
          30 149 297 149 vstem
          200 -10 callgsubr
          -267 -809 -106 callsubr
          endchar
        </CharString>
        <CharString name="Oslash">
          59 callgsubr
          hintmask 00000000
          hintmask 01101100
          143 24 -45 callsubr
        </CharString>
        <CharString name="Oslashacute">
          59 callgsubr
          hintmask 10101100
          254 674 -83 callgsubr
          hintmask 01101100
          -87 -698 -45 callsubr
        </CharString>
        <CharString name="Otilde">
          -63 callsubr
          vstem
          174 727 -94 callsubr
          59 -793 -106 callsubr
          endchar
        </CharString>
        <CharString name="P">
          -33 0 58 202 50 269 87 callsubr
          396 143 hintmask 11101000
          -4 58 -26 callgsubr
          298 hlineto
          7 58 -90 14 71 504 rlineto
          0 12 3 17 62 32 -24 -70 -93 -33 -68 -106 -14 vhcurveto
          -50 vlineto
          221 61 120 102 120 -76 46 -139 hvcurveto
          -248 hlineto
          hintmask 11011000
          8 callsubr
        </CharString>
        <CharString name="Q">
          103 -10 65 540 65 hstem
          30 149 297 149 vstem
          152 -112 rmoveto
          36 -46 55 25 182 -41 rlineto
          -6 27 25 -7 17 hhcurveto
          26 18 12 16 12 hvcurveto
          52 68 -27 28 -58 -31 -181 42 -17 4 -18 4 -15 2 rlinecurve
          31 32 rlineto
          202 16 106 161 235 vvcurveto
          67 callsubr
          -162 100 -84 125 -11 vhcurveto
          48 65 rmoveto
          -69 -55 38 146 256 49 100 123 69 56 -38 -146 -256 -50 -100 -123 hvcurveto
          endchar
        </CharString>
        <CharString name="R">
          -10 0 -3 callsubr
          hstemhm
          385 141 hintmask 00000000
          hintmask 01110100
          -4 58 rmoveto
          hintmask 10110100
          -91 callsubr
          hintmask 01101100
          -68 callsubr
          172 263 rmoveto
          hintmask 10110100
          -16 callgsubr
          hintmask 01101100
          66 callsubr
        </CharString>
        <CharString name="Racute">
          -16 0 -3 callsubr
          hstemhm
          382 141 hintmask 10110100
          248 -69 callsubr
          hintmask 01110100
          -231 -664 rmoveto
          hintmask 10110100
          -91 callsubr
          hintmask 01101100
          -68 callsubr
          172 263 rmoveto
          hintmask 10110100
          -16 callgsubr
          hintmask 01101100
          66 callsubr
        </CharString>
        <CharString name="Rcaron">
          -16 0 -3 callsubr
          hstemhm
          382 141 hintmask 10110100
          209 -87 callgsubr
          hintmask 01110100
          -329 -720 rmoveto
          hintmask 10110100
          -91 callsubr
          hintmask 01101100
          -68 callsubr
          172 263 rmoveto
          hintmask 10110100
          -16 callgsubr
          hintmask 01101100
          66 callsubr
        </CharString>
        <CharString name="Rcommaaccent">
          -16 0 -3 callsubr
          hstemhm
          210 100 72 141 hintmask 00000000
          hintmask 01110110
          -7 58 rmoveto
          hintmask 10110110
          -91 callsubr
          hintmask 01101110
          -68 callsubr
          172 263 rmoveto
          hintmask 10110110
          -16 callgsubr
          hintmask 01101110
          52 callgsubr
          hintmask 10110110
          -62 -521 -84 callsubr
        </CharString>
        <CharString name="S">
          -13 callgsubr
          14 211 -86 callsubr
        </CharString>
        <CharString name="Sacute">
          -13 callgsubr
          212 -69 callsubr
          -174 -511 -86 callsubr
        </CharString>
        <CharString name="Sacute.loclPLK">
          -13 callgsubr
          255 -24 callsubr
          -370 -651 -86 callsubr
        </CharString>
        <CharString name="Scaron">
          -13 callgsubr
          175 -87 callgsubr
          -274 -567 -86 callsubr
        </CharString>
        <CharString name="Scedilla">
          -107 -194 58 126 66 539 65 0 -20 hstemhm
          54 115 -51 81 -11 97 11 116 hintmask 11101001
          94 53 callgsubr
          hintmask 11101011
          -39 callsubr
          hintmask 11100101
          -34 18 rlineto
          18 vlineto
          124 6 89 78 123 vvcurveto
          87 -72 61 -71 62 vhcurveto
          hintmask 11101001
          -81 70 -19 24 30 vvcurveto
          31 10 33 60 54 41 -17 -11 17 vhcurveto
          10 -108 rlineto
          68 hlineto
          hintmask 11011001
          18 180 rlineto
          hintmask 11101001
          10 -31 -65 11 -79 hhcurveto
          -144 -74 -80 -101 -81 40 -36 109 -95 hvcurveto
          90 -78 3 -18 -47 vvcurveto
          -34 -27 -34 -52 -84 -37 36 0 vhcurveto
          -11 119 rlineto
          -71 hlineto
          -19 -178 rlineto
          hintmask 11100101
          18 -12 54 -23 77 -7 -26 -42 rcurveline
          -25 vlineto
          hintmask 11101011
          -25 callsubr
          vhcurveto
          hintmask 11101001
          40 callsubr
        </CharString>
        <CharString name="Scircumflex">
          -13 callgsubr
          143 715 -102 callgsubr
          -219 -578 -86 callsubr
        </CharString>
        <CharString name="Scommaaccent">
          -107 -11 67 539 65 0 -20 hstemhm
          54 115 -30 100 57 116 hintmask 11001100
          14 211 rmoveto
          -19 -178 rlineto
          -14 21 71 -30 97 hhcurveto
          132 96 80 128 86 -72 62 -71 62 hvcurveto
          hintmask 11010100
          -81 70 -19 24 30 vvcurveto
          31 10 33 60 54 41 -17 -11 17 vhcurveto
          10 -108 rlineto
          68 hlineto
          hintmask 10101100
          18 180 rlineto
          hintmask 11010100
          10 -31 -65 11 -79 hhcurveto
          -144 -74 -80 -101 -81 40 -36 109 -95 hvcurveto
          90 -78 3 -18 -47 vvcurveto
          -34 -27 -34 -52 -84 -37 36 0 vhcurveto
          -11 119 rlineto
          hintmask 11001100
          18 -397 -84 callsubr
        </CharString>
        <CharString name="T">
          -42 0 45 callsubr
          467 66 hintmask 10110000
          91 58 -9 callsubr
        </CharString>
        <CharString name="Tbar">
          -42 0 58 241 67 98 70 callsubr
          467 66 hintmask 00000000
          hintmask 11101000
          533 464 rmoveto
          hintmask 11011000
          28 184 rlineto
          -515 hlineto
          hintmask 11101000
          60 callgsubr
          hintmask 11011000
          37 115 rlineto
          105 hlineto
          -30 -213 rlineto
          -167 hlineto
          -10 -67 rlineto
          167 hlineto
          -32 -227 -71 -14 -37 callsubr
          31 227 rlineto
          170 hlineto
          10 67 rlineto
          -170 hlineto
          29 213 rlineto
          101 hlineto
          hintmask 11101000
          -115 vlineto
          endchar
        </CharString>
        <CharString name="Tcaron">
          -42 0 45 callsubr
          463 66 hintmask 10110000
          207 -87 callgsubr
          -233 -720 -9 callsubr
        </CharString>
        <CharString name="Thorn">
          -35 0 58 86 59 245 69 59 72 -58 58 hstemhm
          373 143 hintmask 11101100
          -6 78 callgsubr
          10 72 rlineto
          30 hlineto
          221 56 105 126 96 -77 46 -139 hvcurveto
          -39 hlineto
          hintmask 11110100
          9 59 rlineto
          hintmask 11101100
          -99 callgsubr
          rlineto
          hintmask 11110100
          -56 callsubr
          rlineto
          152 133 rmoveto
          34 241 rlineto
          1 7 11 1 15 hhcurveto
          62 27 -24 -70 -93 -26 -58 -108 -5 -8 1 1 -9 hvcurveto
          endchar
        </CharString>
        <CharString name="U">
          -33 callsubr
          vstem
          118 576 -107 callsubr
          endchar
        </CharString>
        <CharString name="Uacute">
          -33 callsubr
          vstem
          322 -69 callsubr
          -180 -146 -107 callsubr
          endchar
        </CharString>
        <CharString name="Ubreve">
          88 -11 65 536 58 31 97 56 callsubr
          vstem
          557 814 -95 callgsubr
          -439 -238 -107 callsubr
          endchar
        </CharString>
        <CharString name="Ucircumflex">
          -33 callsubr
          vstem
          245 715 -102 callgsubr
          -217 -213 -107 callsubr
          endchar
        </CharString>
        <CharString name="Udieresis">
          88 -11 65 536 58 39 145 hstemhm
          67 130 22 37 callsubr
          hintmask 00000000
          hintmask 11111100
          281 687 -24 callgsubr
          -386 -111 -107 callsubr
          endchar
        </CharString>
        <CharString name="Ugrave">
          -33 callsubr
          vstem
          326 729 -85 callgsubr
          -208 -153 -107 callsubr
          endchar
        </CharString>
        <CharString name="Uhorn">
          36 callsubr
          737 718 -96 callgsubr
          endchar
        </CharString>
        <CharString name="Uhungarumlaut">
          -33 callsubr
          vstem
          226 696 -22 callgsubr
          76 -150 -22 callgsubr
          -410 -270 -107 callsubr
          endchar
        </CharString>
        <CharString name="Umacron">
          88 -11 65 536 58 68 82 56 callsubr
          vstem
          219 -10 callgsubr
          -451 -222 -107 callsubr
          endchar
        </CharString>
        <CharString name="Uogonek">
          88 -187 69 107 65 536 58 56 callsubr
          38 95 vstem
          303 -6 rmoveto
          1 -3 rlineto
          -35 -24 -34 -36 -47 -46 callsubr
          -12 8 26 39 32 30 23 17 hvcurveto
          102 30 44 84 22 162 41 298 rcurveline
          -4 callgsubr
          70 -14 -43 -298 rlineto
          -178 -26 -41 -46 -96 -71 callsubr
          43 298 -91 callgsubr
          -42 -302 rlineto
          -6 -42 -3 -37 -32 vvcurveto
          -92 40 -82 173 11 9 4 1 3 vhcurveto
          endchar
        </CharString>
        <CharString name="Uring">
          88 -11 65 536 58 15 47 82 47 hstemhm
          67 130 94 76 62 77 hintmask 00000000
          hintmask 11111110
          291 742 -40 callsubr
          -277 -134 rmoveto
          -42 -302 rlineto
          -6 -42 -3 -37 -32 vvcurveto
          -92 40 -82 173 183 61 81 208 29 vhcurveto
          hintmask 11011110
          41 298 -4 callgsubr
          70 -14 -43 -298 rlineto
          -178 -26 -41 -46 -96 -71 callsubr
          43 298 -99 callgsubr
          rlineto
          endchar
        </CharString>
        <CharString name="Utilde">
          -33 callsubr
          vstem
          191 727 -94 callsubr
          -123 -206 -107 callsubr
          endchar
        </CharString>
        <CharString name="V">
          -22 12 -21 599 58 hstem
          6 595 vstem
          72 576 rmoveto
          109 -585 rlineto
          90 hlineto
          265 585 57 14 8 58 rlineto
          -219 hlineto
          -7 -58 77 -11 rlineto
          -6 vlineto
          -166 -377 -7 -27 rlineto
          -4 27 hlineto
          -62 376 rlineto
          8 vlineto
          64 10 5 58 rlineto
          -272 hlineto
          -4 -58 rlineto
          endchar
        </CharString>
        <CharString name="W">
          3 callgsubr
          67 586 -78 callgsubr
        </CharString>
        <CharString name="Wacute">
          3 callgsubr
          458 674 -83 callgsubr
          -367 -136 -78 callgsubr
        </CharString>
        <CharString name="Wcircumflex">
          3 callgsubr
          346 715 -102 callgsubr
          -369 -203 -78 callgsubr
        </CharString>
        <CharString name="Wdieresis">
          300 -8 153 -132 -21 606 50 39 145 hstemhm
          318 37 callsubr
          hintmask 01111100
          380 687 -92 callgsubr
          -536 -101 rmoveto
          81 -594 rlineto
          111 hlineto
          179 384 53 -384 rlineto
          112 hlineto
          273 595 55 11 6 50 rlineto
          -217 hlineto
          -6 -50 70 -16 rlineto
          hintmask 10111100
          -179 -409 -7 -27 rlineto
          -4 27 hlineto
          -39 395 rlineto
          16 vlineto
          71 14 6 50 rlineto
          -280 hlineto
          -6 -50 63 -12 9 -64 -156 -348 -7 -29 rlineto
          -4 29 hlineto
          -39 410 71 14 6 50 rlineto
          -279 hlineto
          -6 -50 rlineto
          endchar
        </CharString>
        <CharString name="Wgrave">
          3 callgsubr
          379 729 -85 callgsubr
          -312 -143 -78 callgsubr
        </CharString>
        <CharString name="X">
          18 0 50 534 64 -50 50 hstemhm
          -55 661 hintmask 10110000
          -48 50 rmoveto
          -7 -50 rlineto
          237 hlineto
          6 50 -46 14 rlineto
          18 vlineto
          119 156 70 -153 rlineto
          -19 vlineto
          -60 -16 -4 -50 rlineto
          265 hlineto
          4 50 -59 17 -122 276 184 236 61 15 6 54 rlineto
          -211 hlineto
          -8 -53 rlineto
          hintmask 11010000
          46 -11 rlineto
          -18 vlineto
          -112 -146 -62 142 rlineto
          22 vlineto
          hintmask 10110000
          61 14 6 50 rlineto
          -272 hlineto
          -6 -50 53 -10 123 -271 -193 -248 rlineto
          endchar
        </CharString>
        <CharString name="Y">
          31 callsubr
          91 50 -98 callsubr
          endchar
        </CharString>
        <CharString name="Y.loclGUA">
          1 callsubr
          396 648 rmoveto
          57 callgsubr
          -36 -280 rlineto
          -19 -23 -29 -7 -38 hhcurveto
          -99 callsubr
        </CharString>
        <CharString name="Yacute">
          31 callsubr
          236 -69 callsubr
          -121 -672 -98 callsubr
          endchar
        </CharString>
        <CharString name="Yacute.loclGUA">
          1 callsubr
          352 674 -83 callgsubr
          68 -74 rmoveto
          57 callgsubr
          -36 -280 rlineto
          -19 -23 -29 -7 -38 hhcurveto
          -99 callsubr
        </CharString>
        <CharString name="Ycircumflex">
          31 callsubr
          177 715 -102 callgsubr
          -176 -739 -98 callsubr
          endchar
        </CharString>
        <CharString name="Ycircumflex.loclGUA">
          1 callsubr
          240 715 -102 callgsubr
          66 -141 rmoveto
          57 callgsubr
          -36 -280 rlineto
          -19 -23 -29 -7 -38 hhcurveto
          -99 callsubr
        </CharString>
        <CharString name="Ydieresis">
          41 callgsubr
          39 145 hstem
          135 37 callsubr
          vstem
          197 687 -92 callgsubr
          -329 -637 -98 callsubr
          endchar
        </CharString>
        <CharString name="Ydieresis.loclGUA">
          79 -14 68 151 65 320 58 39 145 hstemhm
          98 130 -16 37 callsubr
          hintmask 00000000
          hintmask 11110110
          274 687 -92 callgsubr
          -101 -39 rmoveto
          57 callgsubr
          -36 -280 rlineto
          -19 -23 -29 -7 -38 hhcurveto
          hintmask 11101010
          -99 callsubr
        </CharString>
        <CharString name="Ygrave">
          31 callsubr
          210 729 -85 callgsubr
          -119 -679 -98 callsubr
          endchar
        </CharString>
        <CharString name="Ygrave.loclGUA">
          1 callsubr
          273 729 -85 callgsubr
          123 -81 rmoveto
          57 callgsubr
          -36 -280 rlineto
          -19 -23 -29 -7 -38 hhcurveto
          -99 callsubr
        </CharString>
        <CharString name="Z">
          -22 -3 callgsubr
          hstemhm
          -8 543 hintmask 10011000
          -8 69 -59 callgsubr
        </CharString>
        <CharString name="Zacute">
          -22 -3 callgsubr
          hstemhm
          -8 543 hintmask 10011000
          223 -69 callsubr
          -207 -653 -59 callgsubr
        </CharString>
        <CharString name="Zacute.loclPLK">
          -22 -3 callgsubr
          hstemhm
          -8 543 hintmask 10011000
          297 -24 callsubr
          -434 -793 -59 callgsubr
        </CharString>
        <CharString name="Zcaron">
          -22 -3 callgsubr
          hstemhm
          -8 543 hintmask 10011000
          191 -87 callgsubr
          -312 -709 -59 callgsubr
        </CharString>
        <CharString name="Zdotaccent">
          -22 -3 callgsubr
          33 151 hstemhm
          233 143 hintmask 10011100
          298 -39 callgsubr
          -306 -612 rmoveto
          28 -69 rlineto
          438 hlineto
          hintmask 01011100
          23 180 rlineto
          -61 hlineto
          hintmask 10011100
          -39 -111 rlineto
          -223 hlineto
          -4 8 381 499 -46 72 rlineto
          -417 hlineto
          hintmask 10101100
          -26 -180 rlineto
          61 hlineto
          hintmask 10011100
          43 111 rlineto
          212 hlineto
          8 -14 rlineto
          endchar
        </CharString>
        <CharString name="a">
          -30 -11 80 callgsubr
          120 207 hintmask 00000000
          hintmask 10101100
          293 104 -105 callgsubr
        </CharString>
        <CharString name="aacute">
          -23 -51 callgsubr
          271 17 callsubr
          30 16 56 29 -79 callsubr
          rlineto
          hintmask 10101100
          54 -487 -105 callgsubr
        </CharString>
        <CharString name="abreve">
          -26 -11 callsubr
          484 -77 callsubr
          hintmask 10101110
          -191 -605 rmoveto
          3 -2 rlineto
          hintmask 01011110
          -98 callgsubr
          hintmask 10101110
          -100 callgsubr
          hintmask 01101100
          -104 callsubr
          endchar
        </CharString>
        <CharString name="acircumflex">
          -26 -51 callgsubr
          144 591 -103 callsubr
          hintmask 10101100
          57 -578 -105 callgsubr
        </CharString>
        <CharString name="acute">
          -350 551 192 hstem
          49 211 vstem
          81 17 callsubr
          26 callgsubr
          rlineto
          endchar
        </CharString>
        <CharString name="acutecomb">
          551 192 hstem
          -153 211 vstem
          -121 17 callsubr
          26 callgsubr
          rlineto
          endchar
        </CharString>
        <CharString name="acutecomb.case">
          674 166 hstem
          -154 226 vstem
          -130 674 -83 callgsubr
          endchar
        </CharString>
        <CharString name="adieresis">
          86 callsubr
          79 150 38 callgsubr
          -10 142 -12 207 -133 142 hintmask 0000000000000000
          hintmask 0110101010000000
          211 576 -96 callsubr
          hintmask 1010110100000000
          -122 -472 rmoveto
          3 -2 rlineto
          hintmask 0101110100000000
          -98 callgsubr
          hintmask 1010110100000000
          -100 callgsubr
          hintmask 0110110010000000
          -104 callsubr
          endchar
        </CharString>
        <CharString name="ae">
          48 callgsubr
          409 169 -55 callsubr
        </CharString>
        <CharString name="aeacute">
          48 callgsubr
          387 17 callsubr
          26 callgsubr
          rlineto
          54 -422 -55 callsubr
        </CharString>
        <CharString name="agrave">
          -26 -51 callgsubr
          285 -33 callgsubr
          hintmask 10101100
          8 -496 -105 callgsubr
        </CharString>
        <CharString name="amacron">
          86 callsubr
          110 82 -26 callsubr
          hintmask 01101100
          147 689 -28 callsubr
          hintmask 10101110
          -184 -585 rmoveto
          3 -2 rlineto
          hintmask 01011110
          -98 callgsubr
          hintmask 10101110
          -100 callgsubr
          hintmask 01101100
          -104 callsubr
          endchar
        </CharString>
        <CharString name="ampersand">
          68 -11 66 532 63 hstemhm
          13 122 -47 111 152 102 -17.5 88.5 -88 92 hintmask 00000000
          hintmask 11100100
          432 -15 rmoveto
          7 -103 rlineto
          66 hlineto
          14 98 rlineto
          1 10 4 20 28 vvcurveto
          29 -18 23 -10 13 vhcurveto
          hintmask 11100010
          -22 26 rlineto
          37 61 17 65 67 vvcurveto
          0 11 -1 6 29 24 9 27 23 vhcurveto
          49 56 -26 36 -84 -39 rlineto
          hintmask 11011000
          -84 22 -13 3 -14 6 -15 3 rlinecurve
          12 21 7 26 30 vvcurveto
          82 -62 47 -105 -90 -108 -58 -123 -73 39 -37 21 -29 vhcurveto
          hintmask 11100100
          -45 -22 -90 -62 -114 vvcurveto
          -116 100 -27 100 68 59 18 32 47 vhcurveto
          hintmask 11011000
          -98 339 rmoveto
          -10 -11 -38 47 rlineto
          -37 45 -5 33 20 vvcurveto
          42 21 33 57 54 20 -27 -48 -58 -21 -31 -41 -45 vhcurveto
          hintmask 11100010
          133 -185 rmoveto
          -113 137 73 34 52 -16 rlineto
          1 -15 1 -19 -21 vvcurveto
          -38 -5 -34 -9 -28 vhcurveto
          -240 96 rmoveto
          165 -201 rlineto
          -22 -32 -39 -11 -40 hhcurveto
          -82 -19 56 57 62 29 40 18 19 hvcurveto
          endchar
        </CharString>
        <CharString name="aogonek">
          -34 -187 69 107 99 -94 94 -62 62 345 80 4 -20 -26 callsubr
          -191 93 hintmask 1010101010000000
          353 -6 rmoveto
          11 hlineto
          -37 -24 -35 -36 -50 -46 callsubr
          -14 8 26 hvcurveto
          hintmask 1001101010000000
          52 61 38 15 8 vhcurveto
          hintmask 1001101100000000
          13 6 9 6 0 vvcurveto
          hintmask 1010011100000000
          62 -71 vlineto
          69 429 rlineto
          -76 hlineto
          hintmask 1100101100000000
          -100 callgsubr
          3 -2 rlineto
          hintmask 1010101100000000
          -14 -20 -6 -18 -19 vvcurveto
          hintmask 1010101010000000
          -33 26 -18 51 vhcurveto
          -22 376 rmoveto
          -33 -194 rlineto
          -37 -28 -47 -51 -40 hhcurveto
          -18 -9 40 43 105 18 94 27 60 hvcurveto
          2 1 9 1 11 hhcurveto
          32 38 -23 -40 39 hvcurveto
          endchar
        </CharString>
        <CharString name="approxequal">
          -43 135 257 hstem
          72 397 vstem
          72 319 5 callgsubr
          -42 -188 5 callgsubr
          endchar
        </CharString>
        <CharString name="aring">
          -34 -43 callgsubr
          60 49 86 49 38 callgsubr
          46 76 -2 207 -143 77 hintmask 0110111101000000
          202 640 -54 callsubr
          hintmask 1010111010000000
          -13 -502 rmoveto
          3 -2 rlineto
          hintmask 0101111010000000
          -98 callgsubr
          hintmask 1010111010000000
          -100 callgsubr
          hintmask 0110111101000000
          -104 callsubr
          endchar
        </CharString>
        <CharString name="aringacute">
          -30 -43 callgsubr
          60 49 86 49 38 callgsubr
          54 76 -10 207 -135 77 hintmask 0110111101000000
          308 798 77 callsubr
          26 callgsubr
          rlineto
          -66 -198 -54 callsubr
          hintmask 1010111010000000
          -21 -502 rmoveto
          3 -2 rlineto
          hintmask 0101111010000000
          -98 callgsubr
          hintmask 1010111010000000
          -100 callgsubr
          hintmask 0110111101000000
          -104 callsubr
          endchar
        </CharString>
        <CharString name="asciicircum">
          -22 649 -20 hstem
          45 443 vstem
          283 649 rmoveto
          -238 -387 rlineto
          93 hlineto
          163 262 94 -262 rlineto
          93 hlineto
          -143 387 rlineto
          endchar
        </CharString>
        <CharString name="asciitilde">
          -116 207 143 hstem
          15 400 vstem
          15 252 -94 callsubr
          endchar
        </CharString>
        <CharString name="asterisk">
          -168 510 -20 27 -20 hstemhm
          14 173 -173 363 hintmask 01010000
          161 499 rmoveto
          -58 -121 rlineto
          -21 27 18 -11 15 hhcurveto
          34 9 47 25 5 hvcurveto
          11 61 96 -92 rlineto
          37 24 14 17 18 vvcurveto
          34 -31 10 -25 13 vhcurveto
          -55 29 119 63 rlineto
          50 -16 -13 18 -23 hhcurveto
          -20 -17 -16 -13 -14 hvcurveto
          -54 -51 -20 133 rlineto
          -27 hlineto
          -46 -11 -20 -21 -17 10 -19 8 -18 hvcurveto
          hintmask 10010000
          27 -58 rlineto
          hintmask 10100000
          -132 21 rlineto
          -11 -26 -4 -17 -12 vvcurveto
          -33 28 -7 19 vhcurveto
          hintmask 01100000
          9 19 2 1 8 hvcurveto
          hintmask 10100000
          115 18 rmoveto
          hintmask 01100000
          -25 7 rlineto
          hintmask 10100000
          27 vlineto
          23 9 16 -22 rlineto
          endchar
        </CharString>
        <CharString name="at">
          210 -112 80 78 77 -63 88 221 81 -14 24 92 78 hstemhm
          19 117 71 107 328 113 hintmask 1101011110000000
          596 -45 rmoveto
          -23 48 rlineto
          -19 -43 -50 -16 -81 hhcurveto
          -188 -75 102 128 252 115 102 185 106 100 -71 -131 -160 -29 -67 -59 -25 -10 19 18 5 1 14 2 11 hvcurveto
          hintmask 1100111110000000
          45 270 rlineto
          -61 hlineto
          -8 -6 -9 -9 -10 -9 rrcurveto
          hintmask 1011011110000000
          0 -34 14 -46 -122 -70 -144 -106 -104 47 -36 56 31 44 14 43 40 vhcurveto
          hintmask 1101011110000000
          -42 14 46 -29 64 hhcurveto
          123 83 124 187 146 -98 127 -212 -241 -185 -174 -276 -180 118 -112 244 135 80 66 1 hvcurveto
          -154 394 rmoveto
          hintmask 1011011110000000
          -24 -181 rlineto
          0 -27 -20 -35 -36 -6 22 42 144 28 13 24 vhcurveto
          hintmask 1101011110000000
          46 30 -20 0 hvcurveto
          endchar
        </CharString>
        <CharString name="atilde">
          -26 -51 callgsubr
          119 617 rmoveto
          27 -32 77 37 -90 callgsubr
          hintmask 10101100
          127 -567 -105 callgsubr
        </CharString>
        <CharString name="b">
          -57 -11 80 354 90 hstem
          47 194 103 126 vstem
          122 610 rmoveto
          -97 -571 119 -37 rlineto
          0 40 -13 61 159 66 249 121 117 -54 37 -64 -60 -51 -45 -50 -40 vhcurveto
          -2 3 2 4 12 11 2 14 rlinecurve
          26 162 rlineto
          95 vlineto
          -194 -19 rlineto
          -61 vlineto
          114 -513 rmoveto
          39 253 rlineto
          26 29 39 30 30 hhcurveto
          26 20 -5 -99 -109 -19 -90 -23 -48 hvcurveto
          -2 -1 -6 -1 -15 hhcurveto
          -64 -27 21 24 -28 hvcurveto
          endchar
        </CharString>
        <CharString name="backslash">
          -202 -166 861 hstem
          -58 441 vstem
          300 -166 rmoveto
          83 37 -360 824 -81 -37 rlineto
          endchar
        </CharString>
        <CharString name="bar">
          65 callsubr
          -855 90 855 vlineto
          endchar
        </CharString>
        <CharString name="braceleft">
          -302 -155 858 hstemhm
          13 110 -33 101 hintmask 00000000
          hintmask 11000000
          75 228 rmoveto
          -56 -209 rlineto
          -3 -12 -3 -20 -11 vvcurveto
          -67 56 -53 73 -11 vhcurveto
          29 59 rlineto
          -38 22 -10 20 29 vvcurveto
          10 1 11 2 12 vhcurveto
          hintmask 10100000
          38 204 rlineto
          1 5 1 9 4 vvcurveto
          25 -10 16 -12 10 vhcurveto
          17 12 19 19 3 33 16 199 rcurveline
          4 48 12 27 59 29 -14 55 rcurveline
          -98 -16 -72 -60 -94 vvcurveto
          -205 vlineto
          hintmask 11000000
          -20 -9 -30 -12 -16 -6 rrcurveto
          -49 vlineto
          14 -6 20 -9 17 -9 rrcurveto
          endchar
        </CharString>
        <CharString name="braceright">
          -302 -155 858 hstemhm
          61 101 -33 110 hintmask 11000000
          -22 -100 rmoveto
          14 -55 rlineto
          98 16 72 60 94 vvcurveto
          205 vlineto
          hintmask 10100000
          20 9 30 12 16 6 rrcurveto
          49 vlineto
          -14 6 -20 9 -17 9 56 209 rcurveline
          3 12 3 20 11 vvcurveto
          67 -56 53 -73 11 vhcurveto
          -29 -59 rlineto
          38 -22 10 -20 -29 vvcurveto
          -10 -1 -11 -2 -12 vhcurveto
          hintmask 11000000
          -38 -204 rlineto
          -1 -5 -1 -9 -4 vvcurveto
          -25 10 -16 12 -10 vhcurveto
          -17 -12 -19 -19 -3 -33 -16 -199 rcurveline
          -4 -48 -12 -27 -59 -29 rrcurveto
          endchar
        </CharString>
        <CharString name="bracketleft">
          -296 -151 64 726 65 hstem
          6 326 vstem
          126 704 rmoveto
          -120 -855 rlineto
          206 hlineto
          9 64 -103 21 96 684 109 21 9 65 rlineto
          endchar
        </CharString>
        <CharString name="bracketright">
          -296 -151 65 705 85 hstem
          -68 326 vstem
          -59 -86 rmoveto
          -9 -65 rlineto
          206 hlineto
          120 855 rlineto
          -206 hlineto
          -9 -64 103 -21 -96 -684 rlineto
          endchar
        </CharString>
        <CharString name="breve">
          -222 559 89 hstem
          63 329 vstem
          392 -77 callsubr
          endchar
        </CharString>
        <CharString name="brokenbar">
          65 callsubr
          -365 90 365 vlineto
          -90 -490 rmoveto
          -365 90 365 vlineto
          endchar
        </CharString>
        <CharString name="bullet">
          -139 192 227 hstem
          90 227 vstem
          90 305 rmoveto
          -63 50 -50 63 63 51 50 63 63 -51 51 -63 -63 -50 -51 -63 vhcurveto
          endchar
        </CharString>
        <CharString name="c">
          -29 callgsubr
          376 71 -74 callsubr
        </CharString>
        <CharString name="cacute">
          -29 callgsubr
          202 17 callsubr
          30 16 56 29 -79 callsubr
          rlineto
          206 -520 -74 callsubr
        </CharString>
        <CharString name="cacute.loclPLK">
          -29 callgsubr
          281 -37 callgsubr
          136 -497 -74 callsubr
        </CharString>
        <CharString name="caron">
          -257 553 185 hstem
          63 295 vstem
          63 -88 callsubr
          endchar
        </CharString>
        <CharString name="ccaron">
          -29 callgsubr
          134 -88 callsubr
          202 -667 -74 callsubr
        </CharString>
        <CharString name="ccedilla">
          -141 -194 58 147 -21 22 -21 442 80 38 callgsubr
          -35 81 -11 97 22.5 97.5 hintmask 10111001
          97 53 callgsubr
          hintmask 10111011
          -39 callsubr
          hintmask 10110101
          -34 18 rlineto
          19 vlineto
          126 11 48 69 0 vvcurveto
          -22 36 rlineto
          hintmask 11011001
          0 -52 -34 -50 51 callsubr
          17 84 18 37 vhcurveto
          9 4 32 1 14 hhcurveto
          37 28 -11 0 hvcurveto
          9 -101 rlineto
          46 hlineto
          0 47 45 61 vvcurveto
          67 -77 19 -66 -172 -68 -204 -158 -103 35 -51 86 -7 vhcurveto
          hintmask 10110101
          -25 -41 rlineto
          -25 vlineto
          hintmask 10111011
          -25 callsubr
          vhcurveto
          hintmask 10111001
          40 callsubr
        </CharString>
        <CharString name="ccircumflex">
          -29 callgsubr
          134 591 -103 callsubr
          150 -611 -74 callsubr
        </CharString>
        <CharString name="cdotaccent">
          -141 -11 84 360 80 53 159 38 callgsubr
          59 151 -55.5 97.5 hintmask 00000000
          hintmask 11111000
          284 -59 callsubr
          92 -495 rmoveto
          -22 36 rlineto
          0 -52 -34 -50 51 callsubr
          17 84 18 37 vhcurveto
          hintmask 11110100
          9 4 32 1 14 hhcurveto
          37 28 -11 0 hvcurveto
          9 -101 rlineto
          46 hlineto
          0 47 45 61 vvcurveto
          67 -77 19 -66 -172 -68 -204 -158 -111 41 -51 101 vhcurveto
          hintmask 11111000
          153 56 82 0 hvcurveto
          endchar
        </CharString>
        <CharString name="cedilla">
          -335 -194 58 hstemhm
          -5 81 -11 97 hintmask 11000000
          -29 -14 callsubr
        </CharString>
        <CharString name="cent">
          -132 -75 789 -211 88 hstemhm
          35 131 173.5 97.5 hintmask 10110000
          154 51 rmoveto
          -13 -114 74 -12 29 132 rlineto
          102 22 41 67 0 vvcurveto
          -26 31 rlineto
          0 -57 -43 -42 -60 -36 17 104 vhcurveto
          hintmask 01110000
          -5 callsubr
          hintmask 10110000
          -102 35 -51 84 -8 vhcurveto
          endchar
        </CharString>
        <CharString name="cent.osf">
          -132 11 -21 452 88 123 -20 hstem
          27 131 173.5 97.5 vstem
          146 -10 rmoveto
          -13 -114 74 -12 29 132 rlineto
          102 22 41 67 0 vvcurveto
          -26 31 rlineto
          0 -57 -43 -42 -60 -36 17 104 -5 callsubr
          -102 35 -51 84 -8 vhcurveto
          endchar
        </CharString>
        <CharString name="circumflex">
          -258 553 188 hstem
          47 294 vstem
          47 591 -103 callsubr
          endchar
        </CharString>
        <CharString name="colon">
          -376 -11 152 -131 -21 311 152 hstemhm
          1 145 -103 145 hintmask 00000000
          hintmask 01101000
          106 300 -29 callsubr
          hintmask 01110000
          -42 -311 rmoveto
          51 31 41 48 hvcurveto
          hintmask 10110000
          37 -27 26 -36 -55 -27 -45 -43 vhcurveto
          hintmask 01110000
          -40 26 -24 37 vhcurveto
          endchar
        </CharString>
        <CharString name="comma">
          -386 17 -21 hstem
          -18 144 vstem
          32 -4 27 callsubr
        </CharString>
        <CharString name="copyright">
          116 -2 64 93 61 218 62 90 67 hstem
          8 73 81 102 146 45 135 73 vstem
          8 325 rmoveto
          -181 146 -146 182 181 146 146 181 182 -146 146 -181 -182 -146 -146 -182 vhcurveto
          326 -263 rmoveto
          -146 -107 117 145 145 107 117 146 145 111 -117 -145 -145 -111 -117 -145 hvcurveto
          78 225 rmoveto
          -12 -60 rlineto
          -6 -9 -16 -5 -20 hhcurveto
          -61 -30 19 88 83 21 28 69 19 16 -5 -4 10 hvcurveto
          11 -52 rlineto
          45 110 hlineto
          5 -22 -48 8 -52 hhcurveto
          -101 -70 -74 -100 -106 53 -61 107 70 42 14 8 23 hvcurveto
          110 vlineto
          endchar
        </CharString>
        <CharString name="currency">
          -22 91 114 205 109 hstem
          48 112 206 112 vstem
          82 188 rmoveto
          -79 -86 61 -60 86 80 rlineto
          -20 32 38 -11 42 hhcurveto
          43 40 12 22 34 hvcurveto
          90 -84 61 60 -85 90 rlineto
          19 32 14 40 42 vvcurveto
          41 -13 38 -19 32 vhcurveto
          84 89 -61 60 -89 -82 rlineto
          21 -33 -43 15 -42 hhcurveto
          -42 -39 -11 -20 -32 hvcurveto
          -84 78 -61 -60 78 -84 rlineto
          -22 -33 -12 -41 -43 vvcurveto
          -44 12 -40 22 -33 vhcurveto
          78 117 rmoveto
          56 47 49 55 56 48 -48 -56 -55 -48 -46 -56 -55 -47 46 54 vhcurveto
          endchar
        </CharString>
        <CharString name="d">
          -36 57 callsubr
          hintmask 00000000
          hintmask 10111000
          84 callgsubr
          hintmask 01111000
          -20 callgsubr
          vlineto
          hintmask 01110100
          -48 callsubr
          hintmask 10110100
          -97 46 -64 73 vhcurveto
          hintmask 10111000
          59 callsubr
          hintmask 01110100
          38 263 -48 callgsubr
          endchar
        </CharString>
        <CharString name="dagger">
          -146 423 71 hstem
          25 69 92 86 vstem
          139 307 rmoveto
          -35 -416 rlineto
          83 hlineto
          85 418 rlineto
          119 -1 callsubr
          rrcurveto
          endchar
        </CharString>
        <CharString name="daggerdbl">
          -118 64 71 288 71 hstem
          38 69 38 140 38 69 vstem
          133 64 rmoveto
          -41 -175 rlineto
          139 175 155 hlineto
          12 148 rlineto
          -75 hlineto
          -3 -22 -9 -31 -5 -24 -24 -1 -21 -2 -16 -1 40 150 rcurveline
          147 -1 callsubr
          -40 -148 rcurveline
          -149 vlineto
          -27 1 -16 3 -19 1 9 77 rcurveline
          -73 hlineto
          -30 -148 rlineto
          endchar
        </CharString>
        <CharString name="dcaron">
          -31 57 callsubr
          57 95 hintmask 01110110
          523 -55 callgsubr
          hintmask 10111010
          -224 -467 rmoveto
          4 -2 rlineto
          hintmask 01111010
          -20 callgsubr
          vlineto
          hintmask 01110110
          -48 callsubr
          hintmask 10110110
          -97 46 -64 73 vhcurveto
          hintmask 10111010
          59 callsubr
          hintmask 01110110
          38 263 -48 callgsubr
          endchar
        </CharString>
        <CharString name="dcroat">
          -31 -11 99 -94 94 327 80 47 77 44 callsubr
          -154 196 hintmask 00000000
          hintmask 10111100
          84 callgsubr
          hintmask 01111100
          -20 callgsubr
          -70 vlineto
          hintmask 10111010
          72 454 rlineto
          40 77 -31 hlineto
          12 88 -177 -16 rlineto
          -34 vlineto
          58 -15 -4 -23 rlineto
          -188 -77 174 hlineto
          -13 -67 rlineto
          10 -27 -36 10 -38 hhcurveto
          -152 -79 -216 -129 -97 46 -64 73 hvcurveto
          hintmask 10111100
          59 callsubr
          hintmask 01111000
          36 252 rmoveto
          -33 -179 rlineto
          -33 -25 -51 -57 -45 hhcurveto
          -18 -9 28 55 146 34 72 14 23 hvcurveto
          2 1 12 1 2 hhcurveto
          45 40 -24 -34 33 hvcurveto
          endchar
        </CharString>
        <CharString name="degree">
          -252 491 74 78 78 hstem
          35 76 77 77 vstem
          141 491 rmoveto
          68 56 54 69 60 -45 47 -62 -67 -56 -56 -68 -61 43 -45 63 hvcurveto
          4 74 rmoveto
          -19 -15 17 18 23 18 20 26 18 15 -15 -18 -24 -16 -21 -27 hvcurveto
          endchar
        </CharString>
        <CharString name="dieresis">
          -206 576 150 hstem
          56 142 62 142 vstem
          121 576 -96 callsubr
          endchar
        </CharString>
        <CharString name="divide">
          -52 13 159 57 79 53 159 hstemhm
          155 151 -100 151 hintmask 00000000
          hintmask 01101000
          275 361 -102 callsubr
          -217 -53 63 callsubr
          hintmask 11010000
          -234 -295 -102 callsubr
          endchar
        </CharString>
        <CharString name="dollar">
          -72 -10 66 524 63 hstem
          69 114 130 114 vstem
          253 580 rmoveto
          54 41 -17 -11 17 hvcurveto
          10 -108 rlineto
          68 hlineto
          18 180 -23 8 -43 8 -53 3 rlinecurve
          7 108 -78 9 -19 -117 rlineto
          -121 -11 -62 -74 -91 vvcurveto
          -79 40 -36 109 -93 vhcurveto
          92 -75 3 -17 -46 vvcurveto
          -32 -27 -33 -52 -84 -37 36 0 vhcurveto
          -11 119 rlineto
          -71 hlineto
          -19 -178 18 -12 58 -25 79 -6 rlinecurve
          -7 -118 75 -8 21 130 rlineto
          101 19 70 73 107 vvcurveto
          84 -72 61 -71 61 vhcurveto
          -82 67 -19 23 29 vvcurveto
          30 10 32 60 vhcurveto
          endchar
        </CharString>
        <CharString name="dollar.osf">
          -72 -10 72 25 82 285 78 -16 -20 159 -20 hstemhm
          60 121 122 119 hintmask 10011110
          167 -10 rmoveto
          -7 -118 75 -8 21 130 rlineto
          86 13 80 45 113 vvcurveto
          hintmask 10101110
          174 -241 -37 95 vvcurveto
          42 29 15 50 62 18 -14 0 vhcurveto
          11 -76 rlineto
          69 hlineto
          hintmask 10011110
          17 152 rlineto
          hintmask 10101110
          -13 4 -49 9 -53 3 8 114 rcurveline
          -78 9 -20 -126 rlineto
          -102 -16 -70 -60 -89 -171 243 32 -97 vvcurveto
          -52 -29 -14 -58 vhcurveto
          hintmask 11011110
          -58 -39 25 0 hvcurveto
          82 -74 vlineto
          hintmask 10011110
          -22 -149 23 -12 59 -15 62 -3 rlinecurve
          endchar
        </CharString>
        <CharString name="dotaccent">
          -403 566 159 hstem
          55 151 vstem
          124 -59 callsubr
          endchar
        </CharString>
        <CharString name="dotbelowcomb">
          -21 callsubr
          hstem
          -200 151 vstem
          -131 -194 -102 callsubr
          endchar
        </CharString>
        <CharString name="dotlessi">
          -252 -6 94 -16 callsubr
          hintmask 00000000
          hintmask 10100000
          111 408 -73 callsubr
          hintmask 11000000
          -60 callsubr
          endchar
        </CharString>
        <CharString name="e">
          -20 callsubr
          157 169 -106 callgsubr
          endchar
        </CharString>
        <CharString name="eacute">
          5 callsubr
          214 17 callsubr
          30 16 56 29 -79 callsubr
          rlineto
          -29 -422 -106 callgsubr
          endchar
        </CharString>
        <CharString name="ebreve">
          -27 callgsubr
          46 86 callgsubr
          446 -77 callsubr
          -289 -540 -106 callgsubr
          endchar
        </CharString>
        <CharString name="ecaron">
          5 callsubr
          126 -88 callsubr
          -13 -569 -106 callgsubr
          endchar
        </CharString>
        <CharString name="ecircumflex">
          5 callsubr
          124 591 -103 callsubr
          -63 -513 -106 callgsubr
          endchar
        </CharString>
        <CharString name="edieresis">
          -27 callgsubr
          63 150 hstemhm
          25 128 -44 142 36 123 -97 142 hintmask 00000000
          hintmask 11101010
          174 576 -96 callsubr
          hintmask 11110100
          -225 -407 -106 callgsubr
          endchar
        </CharString>
        <CharString name="edotaccent">
          -27 callgsubr
          53 159 hstemhm
          25 128 53 151 -70 123 hintmask 00000000
          hintmask 11111000
          275 -59 callsubr
          -122 -397 rmoveto
          35 vlineto
          hintmask 11110100
          140 28 117 36 138 vvcurveto
          56 -49 51 -100 -163 -73 -219 -152 -113 49 -39 104 131 70 79 0 vhcurveto
          -22 37 rlineto
          0 -54 -35 -50 vhcurveto
          hintmask 11111000
          38 callsubr
          hvcurveto
          hintmask 11110100
          7 90 rmoveto
          6 89 29 76 8 7 rrcurveto
          4 4 17 6 18 hhcurveto
          28 17 -16 -37 -61 -10 -31 -117 -37 hvcurveto
          endchar
        </CharString>
        <CharString name="egrave">
          5 callsubr
          245 -33 callgsubr
          -92 -431 -106 callgsubr
          endchar
        </CharString>
        <CharString name="eight">
          -52 -11 67 534 70 hstemhm
          21 124 -67 126 131 117 -87 112 hintmask 11010100
          175 321 rmoveto
          hintmask 11100100
          82 callgsubr
          vhcurveto
          hintmask 11011000
          139 96 78 114 87 -47 36 -64 53 hvcurveto
          hintmask 11010100
          68 33 68 63 75 vvcurveto
          77 82 callsubr
          -62 45 -50 52 -44 vhcurveto
          125 83 callgsubr
          -20 80 callsubr
          -30 -40 -35 -29 vhcurveto
          -86 -102 rmoveto
          hintmask 11011000
          90 -77 31 -26 -45 vvcurveto
          -54 -32 -31 -66 vhcurveto
          hintmask 11100100
          -64 -28 32 50 53 14 54 55 44 hvcurveto
          endchar
        </CharString>
        <CharString name="eight.osf">
          -52 -11 67 534 70 hstemhm
          19 124 -67 126 129 123 -91 112 hintmask 00000000
          hintmask 11011000
          173 321 rmoveto
          hintmask 11101000
          82 callgsubr
          129 110 61 139 66 -46 49 -64 53 vhcurveto
          hintmask 11010100
          68 33 63 54 92 vvcurveto
          69 82 callsubr
          vhcurveto
          hintmask 11011000
          -62 45 -50 52 -44 vhcurveto
          hintmask 11010100
          130 83 callgsubr
          -25 80 callsubr
          -25 -40 -35 -29 vhcurveto
          hintmask 11101000
          -91 -102 rmoveto
          61 -48 58 -45 -44 vvcurveto
          -62 -30 -34 -74 -56 -28 32 50 53 14 54 55 44 vhcurveto
          endchar
        </CharString>
        <CharString name="ellipsis">
          -27 -8 147 hstem
          -8 140 43 140 43 140 vstem
          53 -8 rmoveto
          19 callsubr
          183 hmoveto
          19 callsubr
          183 hmoveto
          19 callsubr
          endchar
        </CharString>
        <CharString name="emacron">
          -27 callgsubr
          94 82 hstem
          25 2 callgsubr
          116 689 -28 callsubr
          -293 -520 -106 callgsubr
          endchar
        </CharString>
        <CharString name="emdash">
          312 214 104 hstem
          9 846 vstem
          9 318 rmoveto
          -104 846 104 vlineto
          endchar
        </CharString>
        <CharString name="endash">
          -120 212 104 hstem
          9 414 vstem
          9 316 rmoveto
          -104 414 104 vlineto
          endchar
        </CharString>
        <CharString name="eng">
          -13 -172 100 93 -21 423 90 hstem
          42 199 128 128 vstem
          405 513 rmoveto
          -51 -55 -32 -44 -58 hvcurveto
          -6 callsubr
          75 -17 -27 callsubr
          60 386 rlineto
          -28 callgsubr
          -13 -1 -14 -2 -13 hvcurveto
          -48 -310 -10 -65 -9 -23 -8 -14 rlinecurve
          -4 -2 -20 -6 -28 hhcurveto
          -81 hlineto
          -1 -1 -14 -18 -27 vvcurveto
          -38 21 -16 51 123 88 97 116 16 vhcurveto
          37 267 5 29 rlineto
          3 19 8 50 24 vvcurveto
          46 -22 37 -70 vhcurveto
          endchar
        </CharString>
        <CharString name="eogonek">
          -132 -187 69 108 81 370 72 hstemhm
          25 128 -24 95 63 123 hintmask 11110100
          335 -134 rmoveto
          hintmask 11101100
          15 callsubr
          53 62 38 13 8 hvcurveto
          51 23 29 31 0 vvcurveto
          -22 37 rlineto
          hintmask 11110100
          0 -54 -35 -50 38 callsubr
          vhcurveto
          31 callgsubr
          -163 -73 -219 -152 -113 49 -39 104 vhcurveto
          hintmask 11101100
          6 6 0 1 6 hvcurveto
          -36 -24 -31 -35 -48 vvcurveto
          -49 41 -22 56 vhcurveto
          hintmask 11110100
          66 43 53 0 hvcurveto
          -175 393 rmoveto
          6 89 29 76 8 7 rrcurveto
          4 4 17 6 18 hhcurveto
          28 17 -16 -37 -61 -10 -31 -117 -37 hvcurveto
          endchar
        </CharString>
        <CharString name="equal">
          -52 139 79 73 79 hstem
          35 430 vstem
          66 370 rmoveto
          -11 -79 rlineto
          399 hlineto
          11 79 rlineto
          -419 -152 rmoveto
          -11 -79 rlineto
          399 hlineto
          11 79 rlineto
          endchar
        </CharString>
        <CharString name="estimated">
          176 -18 66 258 66 227 66 hstem
          28 182 318 178 vstem
          210 110 rmoveto
          196 496 vlineto
          213 -1 -129 146 -207 hhcurveto
          -195 -146 -153 -190 -188 151 -152 195 121 99 66 79 65 hvcurveto
          -90 hlineto
          -48 -53 -51 -31 -89 hhcurveto
          -73 -61 25 37 -32 hvcurveto
          262 vmoveto
          173 vlineto
          34 36 53 20 72 hhcurveto
          68 62 -26 -26 27 hvcurveto
          -175 vlineto
          endchar
        </CharString>
        <CharString name="eth">
          -73 -11 72 372 80 122 63 51 callgsubr
          85 566 rmoveto
          36 -55 111 73 25 -19 18 -25 14 -28 rlinecurve
          0 -13 1 -14 -131 -106 -169 -178 -121 65 -56 112 164 88 164 178 135 -40 111 -95 63 vhcurveto
          56 37 -36 53 -87 -56 rlineto
          15 -44 -52 9 -60 hhcurveto
          -33 -20 -3 0 hvcurveto
          -60 vlineto
          48 41 -6 -11 34 hvcurveto
          155 -289 rmoveto
          -15 vlineto
          -122 -18 -78 -20 -43 vhcurveto
          -44 callgsubr
          -59 -17 44 88 114 38 115 8 8 hvcurveto
          3 3 11 0 17 hhcurveto
          31 29 -10 -16 21 hvcurveto
          3 -24 2 -26 -28 vvcurveto
          endchar
        </CharString>
        <CharString name="exclam">
          -351 -22 145 hstem
          -3 138 vstem
          84 667 rmoveto
          -46 -507 rlineto
          84 hlineto
          90 432 7 30 1 7 rrcurveto
          1 8 2 8 7 vvcurveto
          19 -11 14 -52 -52 -24 -18 0 vhcurveto
          -27 -689 rmoveto
          48 30 39 46 35 -26 25 -34 -52 -26 -43 -41 -38 25 -23 35 hvcurveto
          endchar
        </CharString>
        <CharString name="exclamdown">
          -351 389 145 hstem
          65 138 vstem
          65 449 rmoveto
          -35 26 -25 34 52 26 43 41 38 -25 23 -35 -48 -30 -39 -46 vhcurveto
          97 -97 rmoveto
          -84 hlineto
          -90 -432 -7 -30 -1 -7 rrcurveto
          -1 -8 -2 -8 -7 vvcurveto
          -19 11 -14 52 52 24 18 0 vhcurveto
          endchar
        </CharString>
        <CharString name="f">
          -254 436 71 97 107 hstem
          13 425 vstem
          32 callgsubr
          84 608 rlineto
          112 hlineto
          16 37 rlineto
          34 -118 vlineto
          81 callgsubr
          rrcurveto
          -22 callsubr
          endchar
        </CharString>
        <CharString name="f_f">
          44 21 -21 436 71 97 107 hstem
          13 723 vstem
          645 604 rmoveto
          67 hlineto
          0 24 26 27 vvcurveto
          38 -21 16 -39 -134 -75 -104 -100 -36 vhcurveto
          -190 hlineto
          81 callgsubr
          rrcurveto
          -22 callsubr
          -98 -607 134 13 84 608 rlineto
          180 hlineto
          -1 -5 -1 -5 -4 vvcurveto
          -74 -435 134 13 60 436 rlineto
          112 hlineto
          16 37 rlineto
          34 -118 vlineto
          81 callgsubr
          rrcurveto
          8 9 25 6 53 hhcurveto
          endchar
        </CharString>
        <CharString name="fi">
          1 -9 94 351 71 100 109 hstemhm
          13 498 -204 204 hintmask 11110000
          32 callgsubr
          rlineto
          hintmask 11101000
          85 608 rlineto
          64 hlineto
          76 -21 -58 -306 -53 callsubr
          86 73 callgsubr
          62 -71 vlineto
          54 323 rlineto
          99 -252 vlineto
          8 59 6 25 5 5 rrcurveto
          8 9 15 3 19 85 1 -27 47 hhcurveto
          44 25 23 41 51 -30 21 -78 -144 -82 -107 -102 -38 hvcurveto
          -78 62 callgsubr
        </CharString>
        <CharString name="five">
          -100 -11 67 487 105 -105 158 hstemhm
          268 139 hintmask 11010000
          153 -11 rmoveto
          116 150 75 169 129 -110 44 -148 20 hvcurveto
          17 117 rlineto
          264 hlineto
          hintmask 10110000
          24 158 rlineto
          -71 hlineto
          hintmask 11010000
          -24 -53 rlineto
          -252 hlineto
          -56 -293 rlineto
          171 -20 46 -46 -81 vvcurveto
          -92 -24 -60 -88 -66 -18 22 0 vhcurveto
          -9 98 rlineto
          -46 hlineto
          -1 -51 -44 -54 -66 71 -23 105 hvcurveto
          endchar
        </CharString>
        <CharString name="five.osf">
          -112 -166 60 319 71 137 105 hstem
          255 141 vstem
          -35 -106 rmoveto
          -52 vlineto
          0 39 -8 81 167 144 88 169 146 -111 37 -145 10 vhcurveto
          22 137 rlineto
          263 hlineto
          24 158 rlineto
          -71 hlineto
          -24 -53 rlineto
          -251 hlineto
          -61 -313 rlineto
          163 -5 50 -31 -90 vvcurveto
          -180 -147 -13 -143 vhcurveto
          endchar
        </CharString>
        <CharString name="fl">
          1 -7 94 349 71 106 98 hstemhm
          13 507 -208 202 hintmask 11110000
          32 callgsubr
          rlineto
          hintmask 11101000
          84 608 rlineto
          83 hlineto
          16 37 rlineto
          34 -89 vlineto
          8 59 12 25 5 5 rrcurveto
          4 4 15 13 61 hhcurveto
          59 hlineto
          -86 -502 -23 callsubr
          -72 vlineto
          78 526 rlineto
          94 vlineto
          0 -44 4 -35 -189 -83 -104 -100 -37 vhcurveto
          -76 62 callgsubr
        </CharString>
        <CharString name="florin">
          -162 -119 89 45 -21 392 72 111 91 hstemhm
          -76 538 hintmask 01111000
          133 386 rmoveto
          -25 -303 rlineto
          hintmask 11111000
          -89 -7 -2 -24 -51 hhcurveto
          hintmask 01111000
          -33 -23 10 14 -26 hvcurveto
          0 -42 -15 -40 vvcurveto
          hintmask 11111000
          -36 33 -22 64 112 86 69 132 13 vhcurveto
          20 304 rlineto
          118 72 -112 hlineto
          10 60 rlineto
          50 8 15 1 16 hhcurveto
          52 37 -10 -12 24 hvcurveto
          0 42 10 42 vvcurveto
          39 -37 22 -62 -117 -80 -80 -122 -23 vhcurveto
          -82 -17 -6 -55 rlineto
          endchar
        </CharString>
        <CharString name="four">
          -27 0 234 -84 84 435 -20 hstemhm
          hintmask 01100000
          364 669 rmoveto
          -378 -443 28 -76 rlineto
          249 hlineto
          hintmask 10100000
          -22 -150 rlineto
          126 hlineto
          hintmask 01100000
          22 150 rlineto
          79 hlineto
          10 84 rlineto
          -77 hlineto
          56 414 rlineto
          -147 -169 rmoveto
          -36 -245 rlineto
          -165 hlineto
          -3 6 198 239 6 14 rlineto
          4 hlineto
          endchar
        </CharString>
        <CharString name="four.osf">
          -22 11 84 418 -20 hstem
          -8 493 vstem
          -8 87 rmoveto
          25 -76 rlineto
          243 hlineto
          -27 -175 rlineto
          133 hlineto
          27 175 rlineto
          79 hlineto
          13 84 rlineto
          -79 hlineto
          71 418 -95 21 rlineto
          -104 -439 rmoveto
          -163 hlineto
          -3 6 208 243 6 14 5 -1 -5 -13 rlineto
          endchar
        </CharString>
        <CharString name="fraction">
          -212 654 -20 hstem
          -92 560 vstem
          404 68 callsubr
          495 710 rlineto
          endchar
        </CharString>
        <CharString name="g">
          -51 -172 78 30 88 8 96 305 80 4 -20 20 callgsubr
          hintmask 00000000
          hintmask 11010100
          74 24 rmoveto
          -56 hlineto
          71 callgsubr
          hintmask 10001100
          -65 56 -35 105 202 61 122 85 14 vhcurveto
          80 482 rlineto
          -71 hlineto
          hintmask 10110010
          -79 callgsubr
          hintmask 10110100
          -30 callgsubr
          hintmask 10110010
          -52 callgsubr
          hintmask 10110100
          35 39 -22 -41 40 hvcurveto
          endchar
        </CharString>
        <CharString name="g_tilde.loclGUA">
          -18 callgsubr
          hintmask 10100100
          120 617 rmoveto
          27 -32 77 37 -90 callgsubr
          hintmask 10011000
          -93 -647 -84 callgsubr
        </CharString>
        <CharString name="gbreve">
          -51 -172 78 126 96 305 80 4 -20 62 89 20 callgsubr
          hintmask 10101010
          484 -77 callsubr
          hintmask 10011100
          -410 -685 rmoveto
          -56 hlineto
          -1 -52 -42 -54 -65 56 -35 105 202 61 122 85 14 hvcurveto
          80 482 rlineto
          -71 hlineto
          hintmask 11101010
          -79 callgsubr
          hintmask 11101100
          -30 callgsubr
          hintmask 11101010
          -52 callgsubr
          hintmask 11101100
          35 39 -22 -41 40 hvcurveto
          endchar
        </CharString>
        <CharString name="gcaron">
          -18 callgsubr
          hintmask 10100100
          160 -88 callsubr
          hintmask 10011000
          -126 -714 -84 callgsubr
        </CharString>
        <CharString name="gcircumflex">
          -18 callgsubr
          hintmask 10100100
          151 591 -103 callsubr
          hintmask 10011000
          -169 -658 -84 callgsubr
        </CharString>
        <CharString name="gcommaaccent">
          -18 callgsubr
          86 100 hintmask 10100110
          386 714 rmoveto
          -24 29 rlineto
          0 -112 -43 -89 vvcurveto
          -29 17 -30 45 26 21 16 17 10 vhcurveto
          0 -19 20 28 vvcurveto
          47 36 34 0 vhcurveto
          hintmask 10011010
          -312 -690 rmoveto
          -56 hlineto
          -1 -52 -42 -54 -65 56 -35 105 202 61 122 85 14 hvcurveto
          80 482 rlineto
          -71 hlineto
          hintmask 11100110
          -79 callgsubr
          hintmask 11101010
          -30 callgsubr
          hintmask 11100110
          -52 callgsubr
          hintmask 11101010
          35 39 -22 -41 40 hvcurveto
          endchar
        </CharString>
        <CharString name="gdotaccent">
          -51 -172 78 126 96 305 80 4 -20 69 159 20 callgsubr
          68 151 hintmask 10101011
          301 -59 callsubr
          hintmask 10011101
          -227 -542 rmoveto
          -56 hlineto
          -1 -52 -42 -54 -65 56 -35 105 202 61 122 85 14 hvcurveto
          80 482 rlineto
          -71 hlineto
          hintmask 11101011
          -79 callgsubr
          hintmask 11101101
          -30 callgsubr
          hintmask 11101011
          -52 callgsubr
          hintmask 11101101
          35 39 -22 -41 40 hvcurveto
          endchar
        </CharString>
        <CharString name="germandbls">
          13 -11 75 566 71 hstemhm
          201 102.5 100.5 136 -84 98 hintmask 11110000
          93 435 rmoveto
          -96 -619 133 12 94 668 rlineto
          80 11 15 54 79 hhcurveto
          48 27 -33 -41 -87 -23 -30 -80 -42 hvcurveto
          -20 -133 rlineto
          hintmask 11101000
          139 -103 36 -15 -45 vvcurveto
          -37 -44 0 -26 -59 -19 14 0 vhcurveto
          -9 98 rlineto
          33 callgsubr
          -72 66 -15 82 108 97 51 114 80 -44 21 -133 101 hvcurveto
          hintmask 11110000
          90 39 73 46 118 vvcurveto
          70 -63 72 -125 -157 -77 -103 -163 -25 vhcurveto
          endchar
        </CharString>
        <CharString name="grave">
          -341 551 192 hstem
          55 211 vstem
          141 -18 callsubr
          35 -18 51 -27 vhcurveto
          endchar
        </CharString>
        <CharString name="gravecomb">
          551 192 hstem
          -156 211 vstem
          -70 -18 callsubr
          35 -18 51 -27 vhcurveto
          endchar
        </CharString>
        <CharString name="gravecomb.case">
          674 166 hstem
          -160 226 vstem
          -115 729 -85 callgsubr
          endchar
        </CharString>
        <CharString name="greater">
          -22 6 497 hstem
          16 505 vstem
          16 96 rmoveto
          34 -90 465 214 6 62 -397 221 -50 -88 299 -168 rlineto
          endchar
        </CharString>
        <CharString name="greaterequal">
          -22 -11 79 hstem
          -14 526 vstem
          15 171 rmoveto
          -18 -103 509 205 6 62 -440 205 -14 -98 306 -142 rlineto
          -367 -232 rmoveto
          -11 -79 rlineto
          488 hlineto
          10 79 rlineto
          endchar
        </CharString>
        <CharString name="guillemotleft">
          -134 60 362 hstem
          12 398 vstem
          141 60 rmoveto
          62 32 -69 147 96 10 callgsubr
          266 -112 rmoveto
          62 32 -69 147 96 10 callgsubr
          endchar
        </CharString>
        <CharString name="guillemotright">
          -134 56 362 hstem
          -2 398 vstem
          -2 98 0 callsubr
          69 -147 rlineto
          84 -141 0 callsubr
          69 -147 rlineto
          endchar
        </CharString>
        <CharString name="guilsinglleft">
          -332 60 362 hstem
          14 218 vstem
          143 60 rmoveto
          62 32 -63 147 90 10 callgsubr
          endchar
        </CharString>
        <CharString name="guilsinglright">
          -332 56 362 hstem
          -2 218 vstem
          -2 98 0 callsubr
          63 -147 rlineto
          endchar
        </CharString>
        <CharString name="h">
          42 callgsubr
          141 613 -35 callsubr
        </CharString>
        <CharString name="hbar">
          -9 -6 94 -67 -21 404 91 38 77 hstemhm
          299 202 -147 128 hintmask 10110100
          430 88 rmoveto
          42 230 rlineto
          3 19 7 45 27 vvcurveto
          46 -16 40 -74 -47 -59 -32 -44 -58 vhcurveto
          15 114 rlineto
          143 77 -133 hlineto
          15 97 -179 -16 rlineto
          -34 vlineto
          60 -15 -7 -32 rlineto
          -86 -77 72 hlineto
          hintmask 01110100
          -96 -533 rlineto
          130 hlineto
          58 367 rlineto
          8 14 50 29 41 hhcurveto
          21 8 -14 -19 -19 -2 67 callgsubr
          hintmask 10111000
          -43 -203 -53 callgsubr
          endchar
        </CharString>
        <CharString name="hcircumflex">
          42 callgsubr
          68 745 -103 callsubr
          -19 -223 -35 callsubr
        </CharString>
        <CharString name="hookabovecomb">
          670 67 hstemhm
          -129 76 callsubr
          hintmask 11000000
          -122 536 rmoveto
          -38 callgsubr
          hintmask 10100000
          -93 callsubr
          hintmask 11000000
          -52 callsubr
          endchar
        </CharString>
        <CharString name="hookabovecomb.case">
          780 67 hstemhm
          -146 204 -100 100 hintmask 11000000
          -110 675 rmoveto
          hintmask 10100000
          -101 callsubr
          hintmask 11000000
          4 callgsubr
          endchar
        </CharString>
        <CharString name="hungarumlaut">
          -209 545 201 hstem
          54 343 vstem
          54 -50 callgsubr
          endchar
        </CharString>
        <CharString name="hyphen">
          35 callgsubr
        </CharString>
        <CharString name="i">
          -246 -9 97 478 159 hstemhm
          45 198 -187 204 -143 151 hintmask 00000000
          hintmask 11001000
          186 -59 callsubr
          hintmask 11010000
          -66 -159 rmoveto
          14 callgsubr
          62 vlineto
          hintmask 11100000
          37 callgsubr
          endchar
        </CharString>
        <CharString name="i.loclTRK">
          -252 -6 94 478 159 -16 callsubr
          -120 151 hintmask 00000000
          hintmask 11001000
          200 -59 callsubr
          hintmask 11010000
          -89 -158 -73 callsubr
          hintmask 11100000
          -60 callsubr
          endchar
        </CharString>
        <CharString name="iacute">
          -252 -6 94 hstemhm
          35 198 -187 204 hintmask 11000000
          87 17 callsubr
          30 16 56 29 -79 callsubr
          rlineto
          hintmask 10100000
          55 -183 -73 callsubr
          hintmask 11000000
          -60 callsubr
          endchar
        </CharString>
        <CharString name="iacute_j.loclNLD">
          28 -172 100 66 94 -16 callsubr
          91 195 hintmask 11101000
          266 7 callgsubr
          417 192 rmoveto
          -149 -152 32 -40 93 49 rlineto
          51 27 35 18 37 vvcurveto
          28 -17 27 -45 6 vhcurveto
          hintmask 11011000
          -339 -655 rmoveto
          hintmask 11101000
          -60 callsubr
          hintmask 11011000
          75 -16 -57 -296 -53 callsubr
          86 73 callgsubr
          91 398 rmoveto
          -82 callsubr
          -195 -19 rlineto
          endchar
        </CharString>
        <CharString name="ibreve">
          -252 -6 94 471 89 -16 callsubr
          hintmask 11100000
          371 -77 callsubr
          hintmask 11010000
          -260 -301 -73 callsubr
          hintmask 11100000
          -60 callsubr
          endchar
        </CharString>
        <CharString name="icircumflex">
          -252 -6 94 -16 callsubr
          hintmask 11000000
          12 591 -103 callsubr
          hintmask 10100000
          7 -274 -73 callsubr
          hintmask 11000000
          -60 callsubr
          endchar
        </CharString>
        <CharString name="idieresis">
          -252 -6 94 488 150 hstemhm
          17 142 -123 198 -187 204 -30 142 hintmask 00000000
          hintmask 11100100
          82 576 -96 callsubr
          hintmask 11001000
          -175 -168 -73 callsubr
          hintmask 11010000
          -60 callsubr
          endchar
        </CharString>
        <CharString name="igrave">
          -252 -6 94 -16 callsubr
          hintmask 11000000
          156 -33 callgsubr
          hintmask 10100000
          -45 -192 -73 callsubr
          hintmask 11000000
          -60 callsubr
          endchar
        </CharString>
        <CharString name="ij">
          14 -172 100 63 97 478 159 hstemhm
          45 198 -187 204 -143 151 60 44 callgsubr
          hintmask 11100101
          186 -59 callsubr
          294 159 -47 callgsubr
          hintmask 11101010
          -152 -301 rmoveto
          -82 callsubr
          -195 -19 rlineto
          -68 -398 rmoveto
          hintmask 11110010
          37 callgsubr
          hintmask 11101010
          75 -16 14 callgsubr
          endchar
        </CharString>
        <CharString name="imacron">
          -252 -6 94 519 82 -16 callsubr
          hintmask 11100000
          25 689 rmoveto
          -10 -82 rlineto
          300 hlineto
          10 82 rlineto
          hintmask 11010000
          -214 -281 -73 callsubr
          hintmask 11100000
          -60 callsubr
          endchar
        </CharString>
        <CharString name="infinity">
          248 57 99 201 97 hstem
          31 102 548 103 vstem
          397 167 rmoveto
          -83 55 49 -27 71 hhcurveto
          112 100 89 138 104 -71 66 -96 -71 -52 -26 -84 -76 hvcurveto
          84 -58 -46 26 -71 hhcurveto
          -110 -102 -89 -136 -106 69 -66 98 70 54 27 83 75 hvcurveto
          -52 87 rmoveto
          -50 -40 -47 -48 -49 hhcurveto
          -43 -33 29 53 73 41 46 57 55 31 -52 -51 28 hvcurveto
          124 hmoveto
          51 38 43 52 55 hhcurveto
          48 28 -31 -51 -75 -47 -44 -51 -46 -39 52 46 -29 hvcurveto
          endchar
        </CharString>
        <CharString name="integral">
          -216 -164 98 680 98 hstem
          -81 497 vstem
          139 512 rmoveto
          -75 -557 rlineto
          -12 -2 -4 -9 -22 hhcurveto
          -25 -11 6 19 -32 hvcurveto
          0 -49 -18 -54 vvcurveto
          -42 37 -9 44 122 55 68 132 18 vhcurveto
          75 557 rlineto
          13 2 4 8 22 hhcurveto
          19 18 -6 -19 32 hvcurveto
          0 49 17 54 vvcurveto
          42 -36 10 -45 -101 -78 -75 -125 -17 vhcurveto
          endchar
        </CharString>
        <CharString name="iogonek">
          -252 -187 69 109 97 -75 -21 34 62 478 159 hstemhm
          36 198 -170 95 -51 151 -21 13 hintmask 0000000000000000
          hintmask 1011100100000000
          177 -59 callsubr
          93 -700 rmoveto
          hintmask 1011101010000000
          15 callsubr
          59 79 42 0 hvcurveto
          -4 hlineto
          10 4 7 5 0 vvcurveto
          hintmask 1100101010000000
          62 vlineto
          hintmask 1100110000000000
          -60 callsubr
          hintmask 1011101010000000
          75 -16 -57 -299 -53 callsubr
          7 7 0 1 7 vhcurveto
          -37 -24 -32 -35 -49 vvcurveto
          -49 41 -22 56 vhcurveto
          hintmask 1011100100000000
          66 43 53 0 hvcurveto
          endchar
        </CharString>
        <CharString name="itilde">
          -252 -6 94 -16 callsubr
          hintmask 11000000
          19 617 rmoveto
          27 -32 77 37 -90 callgsubr
          hintmask 10100000
          45 -263 -73 callsubr
          hintmask 11000000
          -60 callsubr
          endchar
        </CharString>
        <CharString name="j">
          -272 -172 100 638 159 hstemhm
          42 44 callgsubr
          hintmask 11010000
          194 725 -47 callgsubr
          hintmask 10100000
          -152 -301 rmoveto
          -82 callsubr
          -195 -19 rlineto
          endchar
        </CharString>
        <CharString name="jcircumflex">
          -272 -172 100 hstem
          42 195 vstem
          267 697 rmoveto
          23 -16 -15 21 -18 hhcurveto
          -16 -24 -23 -36 -36 hvcurveto
          -92 -91 31 -34 124 65 101 -69 38 36 rlineto
          -302 -165 rmoveto
          -82 callsubr
          -195 -19 rlineto
          endchar
        </CharString>
        <CharString name="k">
          -55 -4 92 61 callgsubr
          90 hstemhm
          53 197 104 128 hintmask 10111000
          136 613 rmoveto
          hintmask 01111000
          21 callsubr
          hintmask 10111000
          -1 callgsubr
          endchar
        </CharString>
        <CharString name="kcommaaccent">
          -71 -4 92 61 callgsubr
          90 hstemhm
          42 197 -64 100 68 128 hintmask 10101100
          125 613 rmoveto
          hintmask 01101100
          21 callsubr
          hintmask 10110100
          -1 callgsubr
          hintmask 10101100
          97 -812 -84 callsubr
        </CharString>
        <CharString name="kgreenlandic">
          -41 -4 92 61 callgsubr
          90 hstemhm
          42 199 128 127 hintmask 10111000
          340 221 rmoveto
          65 42 91 59 96 vvcurveto
          58 -30 37 -71 -56 -72 -55 -20 -26 vhcurveto
          67 -75 callgsubr
          75 -17 rlineto
          hintmask 01111000
          -76 -408 rlineto
          130 hlineto
          63 386 rlineto
          16 25 44 21 31 hhcurveto
          21 14 -10 -25 -41 -37 -51 -96 -72 hvcurveto
          -43 vlineto
          hintmask 10111000
          60 -139 rlineto
          -34 14 25 -12 56 hhcurveto
          71 31 31 0 hvcurveto
          61 -91 vlineto
          endchar
        </CharString>
        <CharString name="l">
          -263 -7 94 hstemhm
          47 53 callsubr
          hintmask 00000000
          hintmask 11000000
          145 613 rmoveto
          -91 -502 -53 callgsubr
          hintmask 10100000
          -11 callgsubr
          endchar
        </CharString>
        <CharString name="lacute">
          -273 -7 94 hstemhm
          40 53 callsubr
          hintmask 10100000
          69 696 rmoveto
          173 49 rlineto
          39 11 8 15 34 vvcurveto
          22 -15 20 -18 11 vhcurveto
          -207 -115 rlineto
          hintmask 11000000
          89 -130 rmoveto
          -91 -502 -53 callgsubr
          hintmask 10100000
          -11 callgsubr
          endchar
        </CharString>
        <CharString name="lcaron">
          -273 -7 94 hstemhm
          40 53 callsubr
          57 95 hintmask 10110000
          280 -55 callgsubr
          hintmask 11010000
          -142 41 rmoveto
          -91 -502 -53 callgsubr
          hintmask 10110000
          -11 callgsubr
          endchar
        </CharString>
        <CharString name="lcommaaccent">
          -273 -7 94 hstemhm
          29 53 callsubr
          -181 100 hintmask 00000000
          hintmask 11000000
          127 613 rmoveto
          -91 -502 -53 callgsubr
          hintmask 10100000
          -11 callgsubr
          hintmask 10010000
          -19 -816 -84 callsubr
        </CharString>
        <CharString name="ldot">
          -263 -7 94 223 152 hstemhm
          47 53 callsubr
          -25 145 hintmask 00000000
          hintmask 11100000
          145 613 rmoveto
          -91 -502 -53 callgsubr
          hintmask 11010000
          -11 callgsubr
          hintmask 11001000
          236 -320 -29 callsubr
          endchar
        </CharString>
        <CharString name="less">
          -22 6 497 hstem
          16 505 vstem
          22 289 rmoveto
          -6 -62 397 -221 50 88 -299 168 357 151 -34 90 rlineto
          endchar
        </CharString>
        <CharString name="lessequal">
          -52 -11 79 hstem
          0 544 vstem
          11 68 rmoveto
          -11 -79 rlineto
          461 hlineto
          25 177 -306 142 340 124 24 103 -506 -200 -6 -62 440 -205 rlineto
          endchar
        </CharString>
        <CharString name="logicalnot">
          -22 274 90 hstem
          384 83 vstem
          35 364 rmoveto
          -90 349 -162 83 252 vlineto
          endchar
        </CharString>
        <CharString name="longs">
          -254 436 71 97 107 hstem
          13 425 vstem
          32 callgsubr
          94 679 81 callgsubr
          rlinecurve
          -22 callsubr
          endchar
        </CharString>
        <CharString name="lozenge">
          -94 21 -21 649 -20 hstem
          13 438 vstem
          13 324 rmoveto
          138 -324 rlineto
          62 hlineto
          238 324 -140 325 rlineto
          -62 hlineto
          90 -325 rmoveto
          -139 -207 -73 207 136 207 rlineto
          endchar
        </CharString>
        <CharString name="lslash">
          -281 -7 94 hstemhm
          40 53 callsubr
          hintmask 00000000
          hintmask 11000000
          75 269 rmoveto
          -28 -158 -53 callgsubr
          hintmask 10100000
          -72 hlineto
          37 233 105 42 rlineto
          72 vlineto
          -93 -38 34 217 rlineto
          94 vlineto
          -198 -19 rlineto
          -58 vlineto
          hintmask 11000000
          83 -17 -49 -269 -107 -43 rlineto
          -69 vlineto
          endchar
        </CharString>
        <CharString name="m">
          257 -6 94 61 callgsubr
          91 hstemhm
          43 198 127 124 74 201 -148 126 hintmask 10111100
          118 408 rmoveto
          hintmask 01111010
          -75 -408 rlineto
          130 hlineto
          60 383 rlineto
          10 18 54 30 30 83 callsubr
          -59 -334 rlineto
          127 hlineto
          53 337 1 10 4 19 2 19 rlinecurve
          12 20 48 26 29 83 callsubr
          hintmask 10111100
          -39 -222 -64 callsubr
          5 -31 76 76 44 32 0 vhcurveto
          62 vlineto
          hintmask 10111010
          -71 hlineto
          38 249 rlineto
          3 19 8 51 27 vvcurveto
          46 -16 34 -73 -47 -59 -34 -44 -58 vhcurveto
          42 -2 -15 36 -76 hhcurveto
          -46 -55 -34 -43 -57 hvcurveto
          68 vlineto
          -198 -19 rlineto
          -62 vlineto
          endchar
        </CharString>
        <CharString name="macron">
          -212 607 82 hstem
          56 340 vstem
          66 689 -28 callsubr
          endchar
        </CharString>
        <CharString name="minus">
          -52 218 79 hstem
          46 411 vstem
          57 297 63 callsubr
          endchar
        </CharString>
        <CharString name="multiply">
          -52 82 349 hstem
          59 385 vstem
          59 143 rmoveto
          51 -61 134 117 101 -117 62 52 -101 119 138 117 -51 61 -139 -118 -103 118 -62 -53 103 -118 rlineto
          endchar
        </CharString>
        <CharString name="n">
          5 16 callsubr
          42 14 callsubr
          117 408 -82 callgsubr
        </CharString>
        <CharString name="nacute">
          5 16 callsubr
          45 14 callsubr
          278 17 callsubr
          30 16 56 29 -79 callsubr
          rlineto
          -126 -183 -82 callgsubr
        </CharString>
        <CharString name="nacute.loclPLK">
          5 16 callsubr
          42 14 callsubr
          326 -37 callgsubr
          -168 -160 -82 callgsubr
        </CharString>
        <CharString name="napostrophe">
          48 16 callsubr
          42 199 -155 95 133 23 callsubr
          hintmask 10101100
          56 -55 callgsubr
          61 -164 rmoveto
          hintmask 01101010
          -27 callsubr
          60 386 rlineto
          66 callgsubr
          hintmask 10101100
          -57 callgsubr
          62 vlineto
          hintmask 10110010
          -60 callgsubr
        </CharString>
        <CharString name="ncaron">
          5 16 callsubr
          45 14 callsubr
          190 -88 callsubr
          -110 -330 -82 callgsubr
        </CharString>
        <CharString name="ncommaaccent">
          5 16 callsubr
          45 199 -46 100 19 23 callsubr
          hintmask 10101010
          120 408 rmoveto
          hintmask 01101010
          -27 callsubr
          60 386 rlineto
          66 callgsubr
          hintmask 10101100
          -57 callgsubr
          62 vlineto
          hintmask 10110010
          -71 hlineto
          -72 callsubr
          hintmask 10101010
          117 -611 -84 callsubr
        </CharString>
        <CharString name="nine">
          -32 -11 56 173 86 291 65 hstem
          38 141 183 140 vstem
          41 48 rmoveto
          -8 -53 rlineto
          -5 31 27 -1 41 hhcurveto
          224 146 178 237 177 -79 79 -148 -140 -97 -108 -144 -124 79 -66 89 77 37 33 12 12 hvcurveto
          4 4 3 4 2 4 rrcurveto
          3 hlineto
          -167 -35 -95 -63 -127 hhcurveto
          -15 -15 1 2 -16 hvcurveto
          227 256 rmoveto
          -57 -32 24 107 114 36 46 54 59 34 -34 -92 -40 -5 -60 -6 -37 hvcurveto
          0 -29 -28 -54 vhcurveto
          endchar
        </CharString>
        <CharString name="nine.osf">
          -22 -170 58 203 86 283 73 hstem
          33 141 183 140 vstem
          27 -112 rmoveto
          -52 vlineto
          -5 31 21 -1 47 hhcurveto
          224 147 191 298 138 -67 76 -140 -127 -130 -79 -189 -98 50 -76 107 98 50 56 0 hvcurveto
          -141 -27 -67 -118 -176 hhcurveto
          185 289 rmoveto
          -56 -23 44 70 136 39 33 59 47 38 -26 -92 -40 0 -63 -11 -34 hvcurveto
          0 -39 -28 -54 vhcurveto
          endchar
        </CharString>
        <CharString name="notequal">
          -52 139 79 73 79 144 -20 hstem
          35 430 vstem
          140 139 rmoveto
          -77 -118 56 -36 99 154 rlineto
          216 hlineto
          11 79 rlineto
          -176 hlineto
          47 73 rlineto
          138 hlineto
          11 79 rlineto
          -98 hlineto
          70 109 -53 35 -94 -144 rlineto
          -224 hlineto
          -11 -79 rlineto
          184 hlineto
          -48 -73 rlineto
          -145 hlineto
          -11 -79 rlineto
          endchar
        </CharString>
        <CharString name="ntilde">
          8 16 callsubr
          44 14 callsubr
          135 626 rmoveto
          27 -32 77 37 -90 callgsubr
          -63 -272 -82 callgsubr
        </CharString>
        <CharString name="numbersign">
          -22 115 91 89 92 -92 223 hstemhm
          -1 512 hintmask 10110000
          92 115 rmoveto
          -28 -145 rlineto
          94 hlineto
          28 145 rlineto
          93 hlineto
          -28 -145 rlineto
          95 hlineto
          28 145 rlineto
          116 91 -99 hlineto
          17 89 rlineto
          103 hlineto
          hintmask 11010000
          92 -85 vlineto
          hintmask 10110000
          25 131 rlineto
          -94 hlineto
          hintmask 11010000
          -26 -131 rlineto
          -93 hlineto
          hintmask 10110000
          26 131 rlineto
          -95 hlineto
          hintmask 11010000
          -25 -131 rlineto
          -124 hlineto
          hintmask 10110000
          -92 106 vlineto
          -17 -89 rlineto
          -110 -91 hlineto
          297 91 rmoveto
          -93 hlineto
          18 89 rlineto
          93 hlineto
          endchar
        </CharString>
        <CharString name="o">
          -62 callgsubr
          vstem
          25 166 -107 callgsubr
          endchar
        </CharString>
        <CharString name="oacute">
          -62 callgsubr
          vstem
          212 17 callsubr
          30 16 56 29 -79 callsubr
          rlineto
          -155 -425 -107 callgsubr
          endchar
        </CharString>
        <CharString name="oacute.loclPLK">
          -62 callgsubr
          vstem
          287 -37 callgsubr
          -221 -402 -107 callgsubr
          endchar
        </CharString>
        <CharString name="obreve">
          -73 -11 72 380 72 46 89 51 callgsubr
          461 -77 callsubr
          -436 -543 -107 callgsubr
          endchar
        </CharString>
        <CharString name="ocircumflex">
          -62 callgsubr
          vstem
          132 591 -103 callsubr
          -199 -516 -107 callgsubr
          endchar
        </CharString>
        <CharString name="odieresis">
          -73 -11 72 380 72 63 150 hstemhm
          25 133 -41 142 62 133 -133 142 hintmask 00000000
          hintmask 11101010
          182 576 -96 callsubr
          hintmask 11110100
          -361 -410 -107 callgsubr
          endchar
        </CharString>
        <CharString name="oe">
          151 -11 72 -71 81 370 72 hstemhm
          12 callsubr
          128 125 123 hintmask 00000000
          hintmask 01111100
          440 169 26 callsubr
          -51 -43 -22 -34 -34 vhcurveto
          39 -30 -49 17 -66 hhcurveto
          -144 -106 -145 -202 hvcurveto
          hintmask 10111100
          -121 65 -56 112 53 46 17 30 37 vhcurveto
          hintmask 01111100
          -33 24 42 -13 61 hhcurveto
          131 70 79 0 hvcurveto
          50 callsubr
          hintmask 10111100
          -206 -108 rmoveto
          -59 -17 44 88 130 35 95 11 13 hvcurveto
          -93 callgsubr
          -44 callgsubr
          215 198 rmoveto
          10 95 20 66 11 11 rrcurveto
          4 4 17 6 18 hhcurveto
          28 17 -16 -37 -61 -10 -31 -115 -37 hvcurveto
          endchar
        </CharString>
        <CharString name="ogonek">
          -346 -187 69 hstem
          -52 95 vstem
          154 8 callgsubr
        </CharString>
        <CharString name="ograve">
          -62 callgsubr
          vstem
          268 -33 callgsubr
          -243 -434 -107 callgsubr
          endchar
        </CharString>
        <CharString name="ohorn">
          -62 callgsubr
          37 106 vstem
          597 514 -97 callgsubr
          endchar
        </CharString>
        <CharString name="ohungarumlaut">
          -62 callgsubr
          vstem
          123 -50 callgsubr
          -357 -578 -107 callgsubr
          endchar
        </CharString>
        <CharString name="omacron">
          -73 -11 72 380 72 94 82 51 callgsubr
          116 689 -28 callsubr
          -421 -523 -107 callgsubr
          endchar
        </CharString>
        <CharString name="one">
          -152 21 -21 650 -20 hstem
          120 74 rmoveto
          -128 -18 -7 -56 rlineto
          375 hlineto
          8 59 -117 15 81 576 rlineto
          -77 hlineto
          -211 -47 rlineto
          -58 142 vlineto
          endchar
        </CharString>
        <CharString name="one.osf">
          -152 0 56 365 108 hstem
          20 335 vstem
          27 56 rmoveto
          -7 -56 rlineto
          328 hlineto
          7 56 -93 14 67 459 rlineto
          -82 hlineto
          -185 -47 rlineto
          -61 113 vlineto
          -50 -351 rlineto
          endchar
        </CharString>
        <CharString name="onehalf">
          190 0 68 208 70 -35 54 222 66 hstemhm
          602 108 hintmask 11011000
          587 68 callsubr
          495 710 rlineto
          hintmask 10111000
          -631 -289 -7 callgsubr
          317 -332 47 callsubr
          hintmask 11011000
          15 callgsubr
        </CharString>
        <CharString name="onequarter">
          235 0 148 -62 62 163 54 222 66 hstemhm
          15 702 hintmask 10111000
          581 697 rmoveto
          -487 -710 65 -43 495 710 rlineto
          -633 -289 -7 callgsubr
          hintmask 01111000
          299 -237 rmoveto
          11 -55 rlineto
          140 hlineto
          hintmask 10111000
          -12 -86 rlineto
          97 hlineto
          hintmask 01111000
          14 86 rlineto
          54 hlineto
          hintmask 10111000
          35 callsubr
        </CharString>
        <CharString name="ordfeminine">
          -218 355 80 -77 74 205 70 hstemhm
          15 99 71 137 hintmask 01111000
          197 432 rmoveto
          3 -2 rlineto
          -9 -14 -6 -11 -13 vvcurveto
          -22 17 -12 34 56 30 25 0 vhcurveto
          49 -36 vlineto
          45 278 rlineto
          -60 hlineto
          -22 -23 rlineto
          9 -21 -30 11 -34 hhcurveto
          -100 -49 -140 -104 hvcurveto
          hintmask 10111000
          -76 33 -32 45 vhcurveto
          hintmask 01111000
          43 35 38 39 26 hvcurveto
          25 178 rmoveto
          hintmask 10111000
          -21 -122 rlineto
          -24 -18 -27 -29 -24 hhcurveto
          -12 -6 13 29 71 10 45 13 40 hvcurveto
          1 10 3 7 vhcurveto
          hintmask 01111000
          21 21 -4 -23 26 hvcurveto
          endchar
        </CharString>
        <CharString name="ordmasculine">
          -218 356 62 226 63 hstem
          15 102 100 102 vstem
          15 474 rmoveto
          -81 52 -37 75 110 67 109 120 87 -51 35 -77 -106 -70 -97 -136 vhcurveto
          149 -56 rmoveto
          -30 -17 8 69 87 20 48 6 9 hvcurveto
          3 2 12 2 11 hhcurveto
          30 19 -6 -65 -81 -5 -40 -14 -28 hvcurveto
          -2 -1 -18 -4 -15 hhcurveto
          endchar
        </CharString>
        <CharString name="oslash">
          55 callsubr
          hintmask 00000000
          hintmask 01100110
          96 13 -50 callsubr
        </CharString>
        <CharString name="oslashacute">
          55 callsubr
          hintmask 10100110
          230 17 callsubr
          26 callgsubr
          rlineto
          hintmask 01100110
          -102 -578 -50 callsubr
        </CharString>
        <CharString name="otilde">
          -62 callgsubr
          vstem
          102 617 rmoveto
          27 -32 77 37 82 -29 rlineto
          -8 23 25 -9 30 hhcurveto
          19 23 13 26 22 hvcurveto
          47 55 -27 32 -77 -37 -99 34 rlineto
          7 -21 -20 5 -19 hhcurveto
          -27 -18 -13 -27 -20 hvcurveto
          -124 -505 -107 callgsubr
          endchar
        </CharString>
        <CharString name="p">
          -30 0 82 341 90 hstem
          34 200 135 128 vstem
          109 408 rmoveto
          -107 -593 134 13 30 186 rlineto
          -8 29 36 -6 38 78 callsubr
          -58 -55 -48 -50 -42 hvcurveto
          -2 3 rlineto
          8 9 4 12 14 vvcurveto
          53 vlineto
          -200 -20 rlineto
          -61 vlineto
          150 -299 rmoveto
          39 238 rlineto
          26 30 42 33 31 61 callsubr
          -48 -41 23 21 -28 hvcurveto
          endchar
        </CharString>
        <CharString name="paragraph">
          0 -164 68 683 61 hstem
          18 564 vstem
          233 196 rmoveto
          63 452 rlineto
          -51 -227 -8 -251 -173 164 -20 51 hvcurveto
          -197 -292 rmoveto
          -68 167 vlineto
          115 63 61 98 14 hvcurveto
          81 572 99 20 7 61 rlineto
          -212 hlineto
          -86 -611 -10 -67 -25 -34 -94 -14 rlinecurve
          endchar
        </CharString>
        <CharString name="parenleft">
          -302 -151 850 hstem
          11 115 vstem
          156 -151 rmoveto
          27 47 rlineto
          -47 38 -10 36 104 vvcurveto
          275 57 227 136 72 vhcurveto
          -14 51 rlineto
          -222 -64 -72 -351 -186 vvcurveto
          -121 33 -105 112 -23 vhcurveto
          endchar
        </CharString>
        <CharString name="parenright">
          -302 652 -20 hstem
          117 115 vstem
          -76 -100 rmoveto
          14 -51 rlineto
          222 64 72 351 186 vvcurveto
          121 -33 105 -112 23 vhcurveto
          -27 -47 rlineto
          47 -38 10 -36 -104 vvcurveto
          -275 -57 -227 -136 -72 vhcurveto
          endchar
        </CharString>
        <CharString name="partialdiff">
          -22 -11 73 293 86 174 89 hstem
          26 144 225 145 vstem
          113 624 rmoveto
          31 -47 rlineto
          18 36 50 20 36 hhcurveto
          114 16 -95 -99 0 -43 20 -60 -137 -130 -91 -185 -117 82 -59 130 166 136 128 311 192 -92 84 -144 -113 -78 -80 0 hvcurveto
          282 -285 rmoveto
          -178 -9 -40 -99 -89 hhcurveto
          -50 -37 32 92 124 37 45 90 57 41 -16 0 hvcurveto
          endchar
        </CharString>
        <CharString name="percent">
          154 48 callsubr
          hintmask 11011111
          531 597 rmoveto
          -418 -610 69 -46 417 610 rlineto
          -587 -190 rmoveto
          -8 callsubr
          149 -62 rmoveto
          -17 callgsubr
          hintmask 10111111
          238 -182 rmoveto
          -8 callsubr
          149 -62 rmoveto
          -17 callgsubr
          endchar
        </CharString>
        <CharString name="period">
          -392 -8 152 -131 -21 hstemhm
          -14 145 hintmask 01100000
          49 -8 rmoveto
          51 31 41 48 hvcurveto
          hintmask 10100000
          37 -27 26 -36 -55 -27 -45 -43 vhcurveto
          hintmask 01100000
          -40 26 -24 37 vhcurveto
          endchar
        </CharString>
        <CharString name="periodcentered">
          -357 199 152 hstem
          32 145 vstem
          95 199 -29 callsubr
          endchar
        </CharString>
        <CharString name="perthousand">
          522 48 callsubr
          28 96 123 96 hintmask 1011111101000000
          531 597 rmoveto
          -418 -610 66 -44 417 610 rlineto
          -584 -192 rmoveto
          hintmask 0101110000000000
          -72 39 -54 99 106 71 68 129 69 -43 57 -94 vhcurveto
          hintmask 1011111101000000
          -109 -69 -80 -117 hvcurveto
          hintmask 0101110000000000
          149 -62 rmoveto
          -17 callgsubr
          hintmask 1010001100000000
          238 -182 rmoveto
          -8 callsubr
          hintmask 1010000011000000
          343 hmoveto
          -8 callsubr
          hintmask 1010001100000000
          -194 -62 rmoveto
          -17 callgsubr
          hintmask 1010000011000000
          343 hmoveto
          -17 callgsubr
          endchar
        </CharString>
        <CharString name="pi">
          38 -6 94 -88 59 359 102 hstemhm
          25 634 -342 198 hintmask 00000000
          hintmask 01110000
          39 59 rmoveto
          -59 60 vlineto
          78 16 27 53 10 hvcurveto
          hintmask 10101000
          62 338 77 callgsubr
          -51 -280 rlineto
          -5 -24 -6 -38 -16 vvcurveto
          -58 30 -8 56 54 58 38 0 vhcurveto
          56 -73 vlineto
          55 329 58 1 21 22 47 47 rlinecurve
          36 36 -36 46 -85 -49 rlineto
          -341 hlineto
          -81 -3 -17 -52 -52 hvcurveto
          -36 -36 36 -46 89 49 rlineto
          hintmask 01110000
          -63 -336 rlineto
          endchar
        </CharString>
        <CharString name="plus">
          -55 218 79 hstem
          37 409 vstem
          196 218 13 callgsubr
          endchar
        </CharString>
        <CharString name="plusminus">
          -52 10 79 207 79 hstem
          12 448 vstem
          210 296 13 callgsubr
          -28 -207 63 callsubr
          endchar
        </CharString>
        <CharString name="product">
          115 0 58 518 72 -58 58 hstemhm
          -13 697 hintmask 11010000
          -4 78 callgsubr
          71 504 rlineto
          199 hlineto
          -71 -504 -71 -14 40 callgsubr
          rlineto
          hintmask 10110000
          71 504 71 14 rlineto
          hintmask 11010000
          8 58 rlineto
          -608 hlineto
          hintmask 10110000
          -8 -58 rlineto
          hintmask 11010000
          -56 callsubr
          rlineto
          endchar
        </CharString>
        <CharString name="q">
          -54 -9 97 345 80 4 -20 hstemhm
          22 129 hintmask 11010000
          271 13 rmoveto
          -34 -198 134 13 rlineto
          hintmask 10110000
          110 689 rlineto
          -74 hlineto
          hintmask 11010000
          -26 -41 rlineto
          16 -27 -49 21 -52 hhcurveto
          -152 -79 -234 -129 -97 38 -62 81 68 55 60 58 38 hvcurveto
          3 -2 -12 -15 -16 -41 -6 -38 rlinecurve
          63 354 rmoveto
          -37 -206 rlineto
          -30 -24 -43 -43 -43 hhcurveto
          -27 -9 35 48 114 20 94 23 48 hvcurveto
          4 2 7 2 19 hhcurveto
          40 39 -30 -36 33 hvcurveto
          endchar
        </CharString>
        <CharString name="question">
          -191 -22 145 435 109 hstemhm
          16 138 -87 64 119 102 hintmask 11011000
          67 314 rmoveto
          -155 64 vlineto
          31 117 43 15 rlineto
          93 32 54 57 106 vvcurveto
          119 -83 62 -114 -85 -41 -28 -38 -38 20 -16 0 vhcurveto
          0 39 11 43 81 38 -35 -76 -36 -13 -35 -69 -25 vhcurveto
          -92 -373 rmoveto
          48 30 39 46 35 -26 25 -34 hvcurveto
          hintmask 11101000
          -52 -26 -43 -41 hvcurveto
          hintmask 11011000
          -38 25 -23 35 vhcurveto
          endchar
        </CharString>
        <CharString name="questiondown">
          -191 -157 109 435 145 hstemhm
          5 102 96 138 -115 64 18 20 hintmask 11101000
          203 447 rmoveto
          -35 26 -25 34 vhcurveto
          hintmask 11110000
          52 26 43 41 38 -25 23 -35 hvcurveto
          hintmask 11101000
          -48 -30 -39 -46 hvcurveto
          -8 -213 rmoveto
          -43 -15 rlineto
          -93 -32 -54 -57 -106 vvcurveto
          -119 83 -62 114 vhcurveto
          hintmask 11101100
          85 41 28 38 38 -20 16 0 hvcurveto
          0 -39 -11 -43 -81 -38 35 76 36 13 35 69 25 vhcurveto
          hintmask 11101000
          101 37 rlineto
          155 -64 vlineto
          endchar
        </CharString>
        <CharString name="quotedbl">
          -218 491 230 hstemhm
          70 114 hintmask 00000000
          hintmask 11000000
          62 491 7 callsubr
          129 -215 7 callsubr
          endchar
        </CharString>
        <CharString name="quotedblbase">
          -202 18 -21 hstem
          4 137 37 137 vstem
          48 -3 -10 callsubr
        </CharString>
        <CharString name="quotedblleft">
          -222 465 257 hstem
          41 137 37 137 vstem
          198 692 2 callsubr
          238 86 2 callsubr
          endchar
        </CharString>
        <CharString name="quotedblright">
          -202 465 257 hstem
          61 137 37 137 vstem
          105 581 -10 callsubr
        </CharString>
        <CharString name="quoteleft">
          -386 465 257 hstem
          41 137 vstem
          198 692 2 callsubr
          endchar
        </CharString>
        <CharString name="quoteright">
          -402 465 257 hstem
          55 137 vstem
          99 581 34 callgsubr
          endchar
        </CharString>
        <CharString name="quotesinglbase">
          -386 18 -21 hstem
          16 137 vstem
          60 -3 34 callgsubr
          endchar
        </CharString>
        <CharString name="quotesingle">
          -345 491 230 hstemhm
          91 114 hintmask 00000000
          hintmask 11000000
          83 491 7 callsubr
          endchar
        </CharString>
        <CharString name="r">
          -197 60 callsubr
          hstem
          42 199 vstem
          117 408 -74 callgsubr
          endchar
        </CharString>
        <CharString name="racute">
          -195 60 callsubr
          hstem
          44 199 vstem
          205 17 callsubr
          30 16 56 29 -79 callsubr
          rlineto
          -54 -183 -74 callgsubr
          endchar
        </CharString>
        <CharString name="radical">
          -22 -7 115 -94 -21 447 56 219 56 hstemhm
          49 690 hintmask 01111000
          108 427 rmoveto
          98 -434 77 callgsubr
          310 709 109 13 rlineto
          56 -165 vlineto
          hintmask 10111000
          -268 -620 -9 -43 rlineto
          43 vlineto
          -60 345 rlineto
          -188 -56 hlineto
          endchar
        </CharString>
        <CharString name="rcaron">
          -195 60 callsubr
          hstem
          44 199 vstem
          113 -88 callsubr
          -34 -330 -74 callgsubr
          endchar
        </CharString>
        <CharString name="rcommaaccent">
          -195 60 callsubr
          hstemhm
          44 199 -171 100 hintmask 11010000
          119 408 17 callgsubr
          55 361 rlineto
          20 19 22 13 57 hhcurveto
          45 hlineto
          15 14 13 32 26 vvcurveto
          30 -14 17 -34 vhcurveto
          hintmask 11100000
          -48 -52 -60 -41 -17 hvcurveto
          -4 hlineto
          5 12 5 19 14 vvcurveto
          48 -75 callgsubr
          hintmask 11010000
          -8 -611 -84 callsubr
        </CharString>
        <CharString name="registered">
          139 213 68 75 43.5 -41.5 17 86 53 80 54 77 68 hstemhm
          41 76 38 13 34 94 75 98 26 14 38 74 hintmask 1101111111010000
          41 503 rmoveto
          -160 130 -130 160 160 130 130 160 160 -130 130 -160 -160 -130 -130 -160 vhcurveto
          327 145 rmoveto
          -201 hlineto
          47 39 57 30 68 hhcurveto
          122 94 -100 -122 hvcurveto
          hintmask 1011111111110000
          -48 -14 -44 -24 -36 vhcurveto
          21 vlineto
          hintmask 1101111111010000
          -45 9 -56 77 rlineto
          0 61 20 63 vvcurveto
          59 -46 24 -55 vhcurveto
          -213 -252 rmoveto
          -22 vlineto
          -24 36 -14 45 48 vvcurveto
          54 17 49 31 39 vhcurveto
          -45 vlineto
          37 -6 rlineto
          -191 vlineto
          113 111 rmoveto
          -19 77 hlineto
          0 12 3 19 25 19 -7 -32 -31 -21 -10 -35 vhcurveto
          -147 -158 rmoveto
          175 40 hlineto
          -47 7 rlineto
          58 29 vlineto
          hintmask 1011111111010000
          59 -90 rlineto
          hintmask 1011111111110000
          -10 5 11 -3 8 hhcurveto
          87 hlineto
          -47 -39 -58 -30 -67 hhcurveto
          hintmask 1101111111010000
          -67 -57 29 46 -39 hvcurveto
          endchar
        </CharString>
        <CharString name="ring">
          -337 557 49 86 49 hstem
          56 76 62 77 vstem
          56 640 -54 callsubr
          endchar
        </CharString>
        <CharString name="s">
          -19 callsubr
          hintmask 00000000
          hintmask 10110100
          97 176 -76 callgsubr
        </CharString>
        <CharString name="sacute">
          -142 -11 75 375 75 hstemhm
          -2 -17 callsubr
          hintmask 11011000
          197 17 callsubr
          30 16 56 29 -79 callsubr
          rlineto
          hintmask 11101000
          -69 -415 rmoveto
          33 callgsubr
          -66 56 -21 105 115 87 67 93 55 -21 40 -94 66 hvcurveto
          hintmask 11010100
          -79 55 -18 21 21 vvcurveto
          27 27 5 34 49 29 -12 0 vhcurveto
          9 -89 rlineto
          47 hlineto
          -49 callgsubr
          hintmask 11101000
          -14 callgsubr
        </CharString>
        <CharString name="sacute.loclPLK">
          -19 callsubr
          hintmask 10101100
          247 -37 callgsubr
          hintmask 10110100
          -109 -392 -76 callgsubr
        </CharString>
        <CharString name="scaron">
          -142 -11 29 callgsubr
          -2 -17 callsubr
          hintmask 10101100
          122 -88 callsubr
          hintmask 10110100
          -66 -562 -76 callgsubr
        </CharString>
        <CharString name="scedilla">
          -152 -194 58 125 55 callgsubr
          -60 81 -11 97 7 -12 callsubr
          hintmask 0000000000000000
          hintmask 1101100010000000
          97 176 rmoveto
          33 callgsubr
          -56 40 -23 77 -6 hvcurveto
          hintmask 1101001010000000
          -26 -42 rlineto
          -25 vlineto
          hintmask 1101010100000000
          -25 callsubr
          -39 -18 9 7 -19 vhcurveto
          -26 -47 rlineto
          -39 callsubr
          hintmask 1101001010000000
          -34 18 rlineto
          17 vlineto
          109 4 82 66 90 vvcurveto
          55 -21 40 -94 66 vhcurveto
          hintmask 1101010001000000
          -79 55 -18 21 21 vvcurveto
          27 27 5 34 48 30 -12 0 vhcurveto
          hintmask 1110010001000000
          9 -89 rlineto
          47 hlineto
          hintmask 1101010001000000
          -49 callgsubr
          hintmask 1101100010000000
          -14 callgsubr
        </CharString>
        <CharString name="scircumflex">
          -19 callsubr
          hintmask 10101100
          100 591 -103 callsubr
          hintmask 10110100
          -95 -506 -76 callgsubr
        </CharString>
        <CharString name="scommaaccent">
          -152 -11 29 callgsubr
          -2 -12 callgsubr
          -31 98 47 -12 callsubr
          hintmask 00000000
          hintmask 10110110
          96 39 callgsubr
          hintmask 10101001
          -79 55 -18 21 21 vvcurveto
          27 27 5 34 48 30 -12 0 vhcurveto
          hintmask 11000101
          9 -89 rlineto
          47 hlineto
          hintmask 10101001
          -49 callgsubr
          hintmask 10110110
          -35 callgsubr
          hintmask 10100110
          -25 -264 rmoveto
          24 -29 rlineto
          0 112 43 89 vvcurveto
          29 -17 30 -45 -26 -19 -16 -17 -10 vhcurveto
          0 19 -20 -28 vvcurveto
          -47 -38 65 callgsubr
        </CharString>
        <CharString name="section">
          -40 -164 84 693 84 hstem
          74 116 124 109 vstem
          197 358 rmoveto
          207 -148 73 94 -219 159 rlineto
          -54 45 -14 16 35 vvcurveto
          32 22 22 63 58 68 -19 0 vhcurveto
          9 -104 rlineto
          65 hlineto
          24 182 rlineto
          0 -78 25 -103 -170 -74 -88 -82 -73 35 -32 88 -64 vhcurveto
          -197 -293 rmoveto
          -20 -185 rlineto
          0 88 -44 137 142 76 81 103 58 -29 35 -51 36 vhcurveto
          -237 169 -73 -88 214 -153 rlineto
          32 -23 35 -29 -39 vvcurveto
          -44 -37 -22 -53 -116 -33 42 0 vhcurveto
          -11 103 rlineto
          endchar
        </CharString>
        <CharString name="semicolon">
          -376 17 -21 304 152 hstemhm
          1 144 -102 145 hintmask 00000000
          hintmask 11010000
          106 300 -29 callsubr
          hintmask 11100000
          -55 -304 27 callsubr
        </CharString>
        <CharString name="seven">
          -106 21 -21 460 188 -105 105 hstemhm
          hintmask 10100000
          380 543 rmoveto
          -13 vlineto
          -327 -474 rlineto
          -56 87 vlineto
          332 543 rlineto
          hintmask 11000000
          105 -436 -188 67 vlineto
          hintmask 10100000
          19 83 rlineto
          endchar
        </CharString>
        <CharString name="seven.osf">
          -102 421 105 hstem
          28 67 263 89 vstem
          358 408 rmoveto
          -355 -541 44 -31 rlineto
          83 hlineto
          317 585 rlineto
          105 -419 -188 67 vlineto
          19 83 rlineto
          244 hlineto
          endchar
        </CharString>
        <CharString name="six">
          -19 -11 73 263 85 249 -20 hstem
          22 139 183 134 vstem
          490 613 rmoveto
          -4 46 rlineto
          -298 -9 -166 -218 -212 vvcurveto
          -154 72 -77 143 165 76 136 109 125 -62 51 -103 -75 -52 -41 0 vhcurveto
          39 112 76 89 189 43 rrcurveto
          -243 -551 rmoveto
          -66 -20 54 89 30 0 36 9 34 hvcurveto
          0 29 20 51 63 31 -32 -78 -99 -15 -54 -82 vhcurveto
          endchar
        </CharString>
        <CharString name="six.osf">
          -12 -11 73 263 85 192 51 hstem
          44 141 182 141 vstem
          510 602 rmoveto
          51 vlineto
          -293 -173 -257 -186 -139 68 -82 131 192 73 137 109 125 -68 50 -103 -75 -48 -32 0 hvcurveto
          41 106 69 78 186 40 rrcurveto
          -239 -540 rmoveto
          -60 -26 49 94 30 2 37 8 38 hvcurveto
          0 32 15 56 53 31 -29 -78 -82 -14 -74 -82 vhcurveto
          endchar
        </CharString>
        <CharString name="slash">
          28 callgsubr
        </CharString>
        <CharString name="space">
          -407 endchar
        </CharString>
        <CharString name="sterling">
          -35 12 -21 293 87 204 83 0 -20 hstemhm
          7 500 -416.5 125 -104.5 124.5 hintmask 11101000
          342 575 rmoveto
          25 24 -3 -5 16 hvcurveto
          11 -89 rlineto
          69 hlineto
          hintmask 11011000
          20 159 rlineto
          hintmask 11101000
          10 -33 -76 11 -55 hhcurveto
          hintmask 11100010
          -135 -72 -73 -149 -21 hvcurveto
          -8 -65 rlineto
          hintmask 11100100
          -55 hlineto
          -11 -87 rlineto
          55 hlineto
          -11 -89 -6 -58 -9 -32 -18 -23 rlinecurve
          -45 -55 34 -36 83 41 163 -33 rlineto
          -8 38 23 -4 13 hhcurveto
          26 20 12 26 23 hvcurveto
          51 58 -34 38 -76 -40 -177 36 7 23 5 27 5 39 rlinecurve
          9 78 rlineto
          142 hlineto
          11 87 rlineto
          hintmask 11100010
          -142 hlineto
          9 74 rlineto
          hintmask 11101000
          12 100 26 28 64 2 rrcurveto
          endchar
        </CharString>
        <CharString name="sterling.osf">
          -72 10 -21 24 -21 233 87 139 83 -21 -20 hstemhm
          3 468 -386.5 123.5 hintmask 01101100
          3 28 rmoveto
          34 -36 rlineto
          hintmask 10101100
          77 41 156 -32 rlineto
          -5 24 29 -7 25 hhcurveto
          20 21 12 27 23 hvcurveto
          51 59 -34 38 -76 -40 rlineto
          hintmask 01110010
          -162 32 7 17 5 20 2 20 rlinecurve
          6 51 rlineto
          103 hlineto
          11 87 rlineto
          -102 hlineto
          6 46 rlineto
          74 10 25 19 51 hhcurveto
          42 17 -8 0 hvcurveto
          8 -89 rlineto
          69 hlineto
          hintmask 01101100
          20 159 rlineto
          hintmask 01110010
          5 -15 -68 16 -66 hhcurveto
          -109 -87 -36 -138 -20 hvcurveto
          -7 -48 rlineto
          -45 hlineto
          -11 -87 rlineto
          45 hlineto
          -7 -51 -3 -23 -6 -48 -19 -20 rlinecurve
          endchar
        </CharString>
        <CharString name="summation">
          -87 0 88 372 188 -76 76 hstemhm
          -17 509 hintmask 10110000
          -17 61 rmoveto
          -61 445 vlineto
          15 188 rlineto
          -66 hlineto
          -35 -100 rlineto
          -232 hlineto
          196 265 -116 219 rlineto
          198 hlineto
          hintmask 11010000
          12 -112 rlineto
          66 hlineto
          hintmask 10110000
          26 188 rlineto
          -435 hlineto
          -13 -59 141 -260 rlineto
          endchar
        </CharString>
        <CharString name="t">
          -209 -9 92 353 71 hstem
          40 341 vstem
          126 436 -56 callgsubr
          endchar
        </CharString>
        <CharString name="tbar">
          -209 -9 92 176 67 110 71 hstem
          17 364 vstem
          371 436 rmoveto
          10 71 rlineto
          -122 hlineto
          22 127 -121 -15 -22 -112 rlineto
          -88 hlineto
          -10 -71 rlineto
          86 hlineto
          -19 -110 rlineto
          -80 hlineto
          -10 -67 rlineto
          79 hlineto
          -27 -158 46 callsubr
          -46 28 -19 76 88 68 28 0 vhcurveto
          64 -129 vlineto
          26 176 rlineto
          119 hlineto
          10 67 rlineto
          -119 hlineto
          17 110 rlineto
          endchar
        </CharString>
        <CharString name="tcaron">
          -217 -9 92 353 71 hstem
          325 95 vstem
          295 -55 callgsubr
          -177 -136 -56 callgsubr
          endchar
        </CharString>
        <CharString name="thorn">
          -42 -166 57 109 82 341 90 hstem
          45 198 114 128 vstem
          -70 -166 rmoveto
          259 hlineto
          9 57 -66 15 17 109 rlineto
          -8 30 37 -7 41 78 callsubr
          -62 -52 -38 -47 -39 hvcurveto
          29 185 rlineto
          94 vlineto
          -198 70 callgsubr
          -122 -707 -67 -15 rlineto
          228 239 rmoveto
          36 227 rlineto
          28 30 47 38 34 61 callsubr
          -51 -43 26 22 -28 hvcurveto
          endchar
        </CharString>
        <CharString name="three">
          -100 -11 75 238 70 198 90 hstemhm
          275 139 -127 127 hintmask 11101000
          145 -11 rmoveto
          168 101 105 124 75 -52 42 -55 17 hvcurveto
          7 vlineto
          68 31 48 59 71 vvcurveto
          81 -45 59 -134 -117 -67 -81 -21 -13 vhcurveto
          36 -29 rlineto
          0 51 41 64 62 27 -20 -53 -59 -42 -66 -144 vhcurveto
          -39 vlineto
          19 -31 rlineto
          43 hlineto
          hintmask 11110000
          83 29 -35 -62 -129 -67 -12 -50 -66 -17 14 0 hvcurveto
          -9 98 rlineto
          33 callgsubr
          -66 72 -21 105 hvcurveto
          endchar
        </CharString>
        <CharString name="three.osf">
          -100 -166 58 550 90 hstemhm
          250 139 -129 138 hintmask 11100000
          -40 -108 rmoveto
          -51 vlineto
          0 31 -7 88 170 140 79 177 83 -52 42 -55 9 vhcurveto
          7 vlineto
          hintmask 11010000
          68 31 48 59 71 vvcurveto
          81 -45 59 -143 -131 -60 -97 0 vhcurveto
          36 -29 rlineto
          0 54 36 59 67 25 -18 -53 -59 -82 -57 -96 -15 vhcurveto
          -6 -35 19 -34 rlineto
          43 hlineto
          hintmask 11100000
          83 29 -32 -62 -129 -92 -56 -198 hvcurveto
          endchar
        </CharString>
        <CharString name="threequarters">
          249 0 148 -62 62 157 62 90 51 0 -20 103 67 -4 -20 hstemhm
          122 106 -26 103 -96 105 hintmask 1010110010000000
          607 68 callsubr
          rlineto
          hintmask 1010101010000000
          495 710 rlineto
          -607 -268 73 callsubr
          hintmask 1010110100000000
          49 -51 11 -26 3 vhcurveto
          4 vlineto
          hintmask 1010110001000000
          29 callsubr
          hintmask 1010110100000000
          -31 -27 -11 -60 -8 vhcurveto
          hintmask 1011010100000000
          -27 vlineto
          hintmask 1011010010000000
          79 callgsubr
          hintmask 1010101010000000
          -42 -24 19 0 hvcurveto
          hintmask 0110110010000000
          349 -245 rmoveto
          11 -55 rlineto
          140 hlineto
          hintmask 1010110010000000
          -12 -86 rlineto
          97 hlineto
          hintmask 0110110010000000
          14 86 rlineto
          54 hlineto
          hintmask 1010110010000000
          35 callsubr
        </CharString>
        <CharString name="tilde">
          -177 576 135 hstem
          55 375 vstem
          55 617 rmoveto
          27 -32 77 37 -90 callgsubr
          endchar
        </CharString>
        <CharString name="tildecomb">
          576 135 hstem
          -320 375 vstem
          -320 617 rmoveto
          27 -32 77 37 -90 callgsubr
          endchar
        </CharString>
        <CharString name="tildecomb.case">
          682 143 hstem
          -326 400 vstem
          -326 727 -94 callsubr
          endchar
        </CharString>
        <CharString name="trademark">
          431 356 50.5 240.5 60 -55.5 55.5 hstemhm
          -1 49 78 105 78 49 82 70 277 105 hintmask 11011111
          73 403 rmoveto
          -47 212 47 vlineto
          -54 7 rlineto
          237 63 vlineto
          15 -58 rlineto
          49 118 -359 -118 49 hlineto
          15 58 rlineto
          63 -237 hlineto
          260 -11 rmoveto
          -43 166 43 vlineto
          -42 8 rlineto
          231 6 vlineto
          79 -282 rlineto
          105 hlineto
          hintmask 10111111
          81 280 rlineto
          6 -228 hlineto
          -43 -7 rlineto
          -45 202 45 vlineto
          -54 7 rlineto
          240 vlineto
          54 7 rlineto
          52 -215 vlineto
          -58 -213 -8 -44 -8 44 rlineto
          hintmask 11011111
          -57 213 rlineto
          -209 -52 hlineto
          49 -5 rlineto
          -243 vlineto
          endchar
        </CharString>
        <CharString name="two">
          -52 0 93 475 92 hstem
          308 141 vstem
          -11 hmoveto
          429 hlineto
          30 187 -59 10 -44 -105 -230 2 -12 -6 -2 2 152 130 rlineto
          153 131 43 83 89 vvcurveto
          79 -66 58 -115 -116 -77 -76 -55 -31 vhcurveto
          35 -27 rlineto
          38 43 37 28 59 hhcurveto
          58 32 -35 -41 -50 -6 -50 -114 -114 hvcurveto
          -224 -224 rlineto
          endchar
        </CharString>
        <CharString name="two.osf">
          -41 0 93 348 92 hstem
          312 146 vstem
          4 66 rmoveto
          25 -66 rlineto
          416 hlineto
          24 177 -58 11 -41 -95 rlineto
          -190 hlineto
          -19 -11 -3 5 116 84 rlineto
          123 89 61 42 92 vvcurveto
          84 -66 55 -112 -167 -52 -124 0 vhcurveto
          35 -26 rlineto
          0 46 58 91 64 15 -37 -27 -47 -8 -20 -96 -78 vhcurveto
          endchar
        </CharString>
        <CharString name="u">
          -65 callsubr
          hintmask 00000000
          hintmask 10101100
          27 callgsubr
          hintmask 01101100
          -105 callsubr
          hintmask 01110100
          40 237 -70 callsubr
          endchar
        </CharString>
        <CharString name="uacute">
          -65 callsubr
          hintmask 01110100
          269 17 callsubr
          30 16 56 29 -79 callsubr
          rlineto
          hintmask 10101100
          -126 -179 rmoveto
          -97 callsubr
          hintmask 01101100
          -105 callsubr
          hintmask 01110100
          40 237 -70 callsubr
          endchar
        </CharString>
        <CharString name="ubreve">
          0 callgsubr
          70 89 36 callgsubr
          495 -77 callsubr
          hintmask 10110110
          -384 -297 rmoveto
          -43 -240 rlineto
          -4 -20 -7 -47 -27 vvcurveto
          -49 23 -40 59 84 74 85 31 26 vhcurveto
          3 -2 rlineto
          hintmask 01110110
          -105 callsubr
          hintmask 01111010
          40 237 -70 callsubr
          endchar
        </CharString>
        <CharString name="ucircumflex">
          -65 callsubr
          hintmask 01110100
          167 591 -103 callsubr
          hintmask 10101100
          -148 -270 rmoveto
          -97 callsubr
          hintmask 01101100
          -105 callsubr
          hintmask 01110100
          40 237 -70 callsubr
          endchar
        </CharString>
        <CharString name="udieresis">
          -5 -16 99 -94 94 493 150 hstemhm
          35 199 -178 128 -41 142 17 201 -156 142 hintmask 00000000
          hintmask 01100101
          208 576 -96 callsubr
          hintmask 10101010
          -302 -169 rmoveto
          -97 callsubr
          hintmask 01101010
          -105 callsubr
          hintmask 01110001
          40 237 -70 callsubr
          endchar
        </CharString>
        <CharString name="ugrave">
          -65 callsubr
          hintmask 01110100
          304 -33 callgsubr
          hintmask 10101100
          -193 -188 rmoveto
          -97 callsubr
          hintmask 01101100
          -105 callsubr
          hintmask 01110100
          40 237 -70 callsubr
          endchar
        </CharString>
        <CharString name="uhorn">
          -65 callsubr
          55 106 hintmask 01110110
          665 514 -90 callsubr
        </CharString>
        <CharString name="uhungarumlaut">
          -65 callsubr
          hintmask 01110100
          164 -50 callgsubr
          hintmask 10101100
          -312 -332 rmoveto
          -97 callsubr
          hintmask 01101100
          -105 callsubr
          hintmask 01110100
          40 237 -70 callsubr
          endchar
        </CharString>
        <CharString name="umacron">
          0 callgsubr
          118 82 36 callgsubr
          162 689 -28 callsubr
          hintmask 10110110
          -381 -277 rmoveto
          -43 -240 rlineto
          -4 -20 -7 -47 -27 vvcurveto
          -49 23 -40 59 84 74 85 31 26 vhcurveto
          3 -2 rlineto
          hintmask 01110110
          -105 callsubr
          hintmask 01111010
          40 237 -70 callsubr
          endchar
        </CharString>
        <CharString name="underscore">
          -92 -93 94 hstem
          10 440 vstem
          10 1 rmoveto
          -94 440 94 vlineto
          endchar
        </CharString>
        <CharString name="uni00A0">
          -407 endchar
        </CharString>
        <CharString name="uni00AD">
          35 callgsubr
        </CharString>
        <CharString name="uni00B2">
          -222 361 68 208 70 hstem
          190 108 vstem
          7 407 47 callsubr
          15 callgsubr
        </CharString>
        <CharString name="uni00B3">
          -252 355 62 90 51 83 67 hstemhm
          88 106 -26 103 -96 105 hintmask 10101000
          30 436 73 callsubr
          hintmask 10110000
          49 -51 11 -26 3 vhcurveto
          4 vlineto
          hintmask 10100100
          29 callsubr
          hintmask 11110000
          -31 -27 -11 -60 -8 vhcurveto
          -27 vlineto
          hintmask 11101000
          79 callgsubr
          hintmask 10101000
          -42 -24 19 0 hvcurveto
          endchar
        </CharString>
        <CharString name="uni00B5">
          -51 callsubr
        </CharString>
        <CharString name="uni00B9">
          -252 361 54 222 66 hstem
          19 262 vstem
          25 415 -7 callgsubr
          endchar
        </CharString>
        <CharString name="uni0162">
          -42 -194 58 136 45 callsubr
          156 81 -11 97 140 66 hintmask 11011010
          132 53 callgsubr
          hintmask 11010110
          -39 callsubr
          hintmask 11011010
          -34 18 rlineto
          28 117 vlineto
          8 58 -70 14 70 507 rlineto
          101 hlineto
          hintmask 11101010
          -115 66 vlineto
          hintmask 11011010
          28 184 rlineto
          -515 hlineto
          hintmask 11101010
          60 callgsubr
          hintmask 11011010
          32 callsubr
          -71 -14 -8 -58 rlineto
          109 hlineto
          -32 -51 rlineto
          -25 vlineto
          hintmask 11010110
          -25 callsubr
          vhcurveto
          hintmask 11011010
          40 callsubr
        </CharString>
        <CharString name="uni0163">
          -217 -194 58 129 90 -70 -21 22 -21 26 64 353 71 hstemhm
          98 81 -11 97 hintmask 10010110
          74 53 callgsubr
          hintmask 10100101
          -39 callsubr
          hintmask 10100110
          -34 18 rlineto
          20 vlineto
          hintmask 10001110
          78 3 59 24 0 vvcurveto
          hintmask 11000110
          64 -129 vlineto
          53 353 rlineto
          123 hlineto
          10 71 rlineto
          -122 hlineto
          22 127 -121 -15 -22 -112 rlineto
          -88 hlineto
          -10 -71 rlineto
          86 hlineto
          -57 -335 46 callsubr
          -38 19 -19 50 -6 vhcurveto
          -27 -44 rlineto
          -25 vlineto
          hintmask 10010101
          -25 callsubr
          vhcurveto
          hintmask 10010110
          40 callsubr
        </CharString>
        <CharString name="uni018F">
          74 -11 66 240 67 231 67 hstem
          30 149 267 149 vstem
          595 388 rmoveto
          178 -90 94 -187 -70 -81 -13 -24 -66 vhcurveto
          -16 -180 rlineto
          69 hlineto
          33 124 rlineto
          17 24 36 9 49 hhcurveto
          115 33 -49 -149 2 hvcurveto
          -11 0 -11 -1 -11 vhcurveto
          -405 hlineto
          -6 -35 -4 -39 -41 vvcurveto
          -174 109 -84 129 215 112 172 227 vhcurveto
          -307 -333 rmoveto
          -61 -48 38 146 20 0 18 1 18 hvcurveto
          262 hlineto
          -171 -13 -48 -69 -93 hhcurveto
          endchar
        </CharString>
        <CharString name="uni019D">
          90 -172 100 93 -21 576 72 -58 58 hstemhm
          -115 785 6 callsubr
          -77 -536 -10 -65 -9 -23 -8 -14 rlinecurve
          -4 -2 -20 -6 -28 hhcurveto
          -81 hlineto
          -1 -1 -14 -18 -27 vvcurveto
          -38 21 -16 51 103 71 97 116 16 vhcurveto
          60 422 rlineto
          4 hlineto
          1 -15 187 -448 77 callgsubr
          hintmask 11011000
          79 576 54 callsubr
          endchar
        </CharString>
        <CharString name="uni01C4">
          625 -3 callgsubr
          -58 58 hstemhm
          473 149 hintmask 10010100
          843 -87 callgsubr
          -960 -720 -44 callsubr
        </CharString>
        <CharString name="uni01C5">
          21 callgsubr
          748 -88 callsubr
          -792 -680 -58 callgsubr
        </CharString>
        <CharString name="uni01C6">
          22 callgsubr
          hintmask 0010011010000000
          639 -88 callsubr
          hintmask 1000011100000000
          -380 -633 -67 callgsubr
        </CharString>
        <CharString name="uni01C7">
          343 -14 68 -54 28 callsubr
          -13 948 hintmask 01011000
          -4 58 47 callgsubr
          hintmask 00111000
          54 callgsubr
          hintmask 01011000
          -45 callgsubr
          410 -5 callgsubr
          -14 125 rlineto
          endchar
        </CharString>
        <CharString name="uni01C8">
          182 -172 100 72 65 -65 180 386 159 -135 58 hstemhm
          496 44 callgsubr
          hintmask 10110010
          648 725 -47 callgsubr
          -199 -545 rmoveto
          -62 hlineto
          hintmask 11001100
          11 callsubr
          71 504 -86 callgsubr
          -71 -14 -30 callsubr
          441 hlineto
          68 424 rmoveto
          -82 callsubr
          -195 -19 rlineto
          endchar
        </CharString>
        <CharString name="uni01C9">
          17 -172 100 65 94 479 159 hstemhm
          47 53 callsubr
          71 44 callgsubr
          hintmask 11110010
          483 725 -47 callgsubr
          -234 -638 rmoveto
          hintmask 11001100
          -11 callgsubr
          hintmask 11010100
          83 -17 -91 -502 -58 callsubr
          82 399 rmoveto
          -82 callsubr
          -195 -19 rlineto
          endchar
        </CharString>
        <CharString name="uni01CA">
          511 -14 68 -54 64 callsubr
          hstemhm
          -16 1119 hintmask 01110000
          -7 58 -26 callgsubr
          231 hlineto
          7 58 -71 14 56 391 rlineto
          4 hlineto
          1 -15 187 -448 77 callgsubr
          79 576 -4 callgsubr
          70 -14 -52 -363 rlineto
          -16 -4 vlineto
          -2 16 -182 435 rlineto
          -193 hlineto
          -68 callsubr
          581 121 rmoveto
          hintmask 10110000
          -71 callgsubr
          -14 125 rlineto
          endchar
        </CharString>
        <CharString name="uni01CB">
          370 -172 100 72 58 508 159 -149 72 -58 58 hstemhm
          684 44 callgsubr
          hintmask 11100010
          836 725 -47 callgsubr
          hintmask 11001100
          -173 -135 rmoveto
          4 callsubr
          rlineto
          hintmask 11010100
          70 -14 -52 -363 rlineto
          -16 -4 vlineto
          -2 16 rlineto
          hintmask 11001100
          -182 435 rlineto
          -193 hlineto
          -8 -58 rlineto
          hintmask 11010100
          -56 callsubr
          -71 -14 -30 callsubr
          231 hlineto
          7 58 -71 14 56 391 rlineto
          4 hlineto
          1 -15 187 -448 77 callgsubr
          hintmask 11001100
          79 576 rlineto
          92 -152 rmoveto
          -82 callsubr
          -195 -19 rlineto
          endchar
        </CharString>
        <CharString name="uni01CC">
          285 -172 100 66 74 callgsubr
          73 201 -146 128 102 195 -124 151 hintmask 0000000000000000
          hintmask 1101111001000000
          751 725 -47 callgsubr
          -236 -637 rmoveto
          hintmask 1101010110000000
          -71 hlineto
          -72 callsubr
          75 -17 rlineto
          hintmask 1011010110000000
          -27 callsubr
          60 386 rlineto
          66 callgsubr
          hintmask 1101011010000000
          -57 callgsubr
          84 398 rmoveto
          -82 callsubr
          -195 -19 rlineto
          endchar
        </CharString>
        <CharString name="uni01CD">
          -66 callsubr
          hstemhm
          -57 606 hintmask 11011000
          231 -87 callgsubr
          -393 -720 -104 callgsubr
          hintmask 11101000
          -61 callgsubr
        </CharString>
        <CharString name="uni01CE">
          -30 -51 callgsubr
          170 -88 callsubr
          hintmask 10101100
          83 -634 -105 callgsubr
        </CharString>
        <CharString name="uni01CF">
          -2 callsubr
          hstem
          -13 393 vstem
          117 -87 callgsubr
          -234 -720 -92 callsubr
          endchar
        </CharString>
        <CharString name="uni01D0">
          -252 -6 94 -16 callsubr
          hintmask 11000000
          59 -88 callsubr
          hintmask 10100000
          12 -330 -73 callsubr
          hintmask 11000000
          -60 callsubr
          endchar
        </CharString>
        <CharString name="uni01D1">
          -63 callsubr
          vstem
          265 -87 callgsubr
          -95 -789 -106 callsubr
          endchar
        </CharString>
        <CharString name="uni01D2">
          -62 callgsubr
          vstem
          149 -88 callsubr
          -164 -572 -107 callgsubr
          endchar
        </CharString>
        <CharString name="uni01D3">
          -33 callsubr
          vstem
          279 -87 callgsubr
          -274 -202 -107 callsubr
          endchar
        </CharString>
        <CharString name="uni01D4">
          -65 callsubr
          hintmask 01110100
          183 -88 callsubr
          hintmask 10101100
          -112 -326 rmoveto
          -97 callsubr
          hintmask 01101100
          -105 callsubr
          hintmask 01110100
          40 237 -70 callsubr
          endchar
        </CharString>
        <CharString name="uni01D5">
          88 -11 65 536 58 39 145 68 82 hstemhm
          67 130 15 37 callsubr
          hintmask 11111010
          239 982 rmoveto
          -10 -82 rlineto
          350 hlineto
          10 82 rlineto
          hintmask 11111110
          -315 -295 -92 callgsubr
          hintmask 11111010
          -379 -111 -107 callsubr
          endchar
        </CharString>
        <CharString name="uni01D6">
          0 callgsubr
          87 150 113 82 hstemhm
          36 199 -178 128 -27 142 3 201 -142 142 hintmask 0111110001000000
          195 921 -28 callsubr
          hintmask 0111100101000000
          -302 -345 -96 callsubr
          hintmask 1011101010000000
          -316 -164 rmoveto
          -97 callsubr
          hintmask 0111101010000000
          -105 callsubr
          hintmask 0111110001000000
          40 237 -70 callsubr
          endchar
        </CharString>
        <CharString name="uni01D7">
          9 callgsubr
          370 858 -83 callgsubr
          hintmask 11111100
          -72 -219 -24 callgsubr
          -379 -111 -107 callsubr
          endchar
        </CharString>
        <CharString name="uni01D8">
          -13 callsubr
          321 783 77 callsubr
          26 callgsubr
          rlineto
          hintmask 0111001010000000
          -66 -247 -96 callsubr
          hintmask 1011010100000000
          -316 -164 rmoveto
          -97 callsubr
          hintmask 0111010100000000
          -105 callsubr
          hintmask 0111100010000000
          40 237 -70 callsubr
          endchar
        </CharString>
        <CharString name="uni01D9">
          9 callgsubr
          297 1023 rmoveto
          -39 -48 87 -79 rlineto
          -18 19 19 -20 15 hhcurveto
          12 23 20 30 37 hvcurveto
          90 74 -26 39 -124 -59 rlineto
          hintmask 11111100
          -136 -275 -24 callgsubr
          -379 -111 -107 callsubr
          endchar
        </CharString>
        <CharString name="uni01DA">
          -13 callsubr
          207 935 rmoveto
          79 -106 rlineto
          -23 17 13 -21 19 hhcurveto
          15 24 23 36 37 hvcurveto
          91 88 -31 34 -123 -67 -101 71 rlineto
          hintmask 0111001010000000
          -24 -394 -96 callsubr
          hintmask 1011010100000000
          -316 -164 rmoveto
          -97 callsubr
          hintmask 0111010100000000
          -105 callsubr
          hintmask 0111100010000000
          40 237 -70 callsubr
          endchar
        </CharString>
        <CharString name="uni01DB">
          9 callgsubr
          291 913 -85 callgsubr
          hintmask 11111100
          -17 -226 -24 callgsubr
          -379 -111 -107 callsubr
          endchar
        </CharString>
        <CharString name="uni01DC">
          -13 callsubr
          295 832 -78 callsubr
          35 -18 51 -27 vhcurveto
          hintmask 0111001010000000
          -72 -256 -96 callsubr
          hintmask 1011010100000000
          -316 -164 rmoveto
          -97 callsubr
          hintmask 0111010100000000
          -105 callsubr
          hintmask 0111100010000000
          40 237 -70 callsubr
          endchar
        </CharString>
</ttFont>
